<?xml version="1.0" standalone="no"?>
<!DOCTYPE svg PUBLIC "-//W3C//DTD SVG 1.1//EN" "http://www.w3.org/Graphics/SVG/1.1/DTD/svg11.dtd" >
<svg xmlns="http://www.w3.org/2000/svg" xmlns:xlink="http://www.w3.org/1999/xlink" version="1.1">
<metadata></metadata>
<defs>
<font id="bettyregular" horiz-adv-x="1148" >
<font-face units-per-em="2048" ascent="1638" descent="-410" />
<missing-glyph horiz-adv-x="1030" />
<glyph horiz-adv-x="0" />
<glyph horiz-adv-x="0" />
<glyph unicode="&#xd;" horiz-adv-x="0" />
<glyph unicode=" "  horiz-adv-x="1030" />
<glyph unicode="&#x09;" horiz-adv-x="1030" />
<glyph unicode="&#xa0;" horiz-adv-x="1030" />
<glyph unicode="!" horiz-adv-x="276" d="M42 86q6 104 96 106h4q88 0 102 -106q-2 -28 -18 -48q-26 -34 -84 -46q-98 2 -100 94zM80 1486q42 28 84 28q18 -2 34 -6q-8 -404 -8 -1138q-14 -8 -32 -14q-30 -10 -68 -12q8 490 -10 1142z" />
<glyph unicode="&#x22;" horiz-adv-x="328" d="M30 1480q20 20 42 22q22 0 48 -22v-18q0 -106 -28 -244q-4 -2 -8 -2q-10 0 -22 6q-22 136 -32 258zM216 1484q20 20 42 20t46 -20q2 -10 2 -20q0 -104 -28 -244q-4 -2 -10 -2q-8 0 -20 8q-22 136 -32 258z" />
<glyph unicode="#" horiz-adv-x="782" d="M20 728q0 26 6 58q76 -4 226 -10q-2 62 -10 250q-52 2 -206 6q-2 36 8 82q64 -4 194 -10q-4 82 -20 322q32 14 80 6q4 -82 12 -328q44 0 178 -4l-8 328q30 10 54 10q14 0 24 -2q2 -114 4 -338l200 8q14 -28 14 -56q0 -12 -2 -24q-70 -2 -206 -8q2 -60 10 -246 q48 0 188 -2q12 -34 -2 -80q-62 2 -186 8q6 -74 26 -296q-36 -20 -82 -12q-2 104 -8 312h-192q4 -76 14 -308q-28 -16 -62 -16q-10 0 -22 2q0 108 2 324q-58 0 -230 -4q-4 12 -4 28zM316 1026q2 -62 6 -252q48 2 190 4q-4 62 -20 248h-176z" />
<glyph unicode="$" horiz-adv-x="860" d="M46 398v36q16 136 88 196q74 60 150 60q92 -6 108 -92q18 -86 -46 -154q2 0 -12 8q-16 8 -24 36q70 128 -18 140q-80 12 -118 -50q-38 -60 -48 -138q-14 -130 54 -224q66 -92 190 -108q22 -2 56 -2q34 -2 74 6q70 16 140 72q68 58 88 196q10 60 -14 110q-22 50 -66 96 q-82 84 -208 160t-222 168q-62 60 -98 132t-24 162q18 140 140 208q106 60 232 60q18 0 38 -2q112 -8 200 -92t66 -246q-32 -18 -64 -10q-2 256 -214 266q-16 2 -42 0q-26 -4 -56 -12q-56 -18 -114 -64q-56 -46 -78 -140q-10 -62 8 -112q18 -52 56 -96q68 -82 182 -150 q112 -70 206 -152q78 -68 124 -154q32 -58 32 -130q0 -36 -8 -72q-46 -156 -126 -220q-82 -62 -168 -76q-42 -8 -82 -8h-8q-44 0 -80 4q-98 6 -166 74t-100 156q-18 48 -24 98q-4 30 -4 60zM382 -150q72 874 4 1780q24 6 46 6q30 0 54 -14q16 -480 16 -936q0 -436 -14 -850 q-14 -4 -28 -4q-38 0 -78 18z" />
<glyph unicode="%" horiz-adv-x="942" d="M26 2q366 686 778 1450q38 16 70 16q20 0 36 -6q-416 -728 -764 -1446q-42 -18 -82 -18q-18 0 -38 4zM48 1194v20q0 178 138 214q2 -6 8 -26q-100 -68 -76 -208q26 -162 148 -152q144 10 114 222q-20 128 -114 104q-40 -12 -44 -60q-2 -46 38 -66q2 -8 -2 -12 q-4 -6 -12 -12q-18 6 -36 20q-16 14 -22 40q-10 50 6 88q18 38 56 48q184 46 198 -174v-10q0 -240 -174 -244q-216 4 -226 208zM490 270q2 178 138 216q2 -8 10 -28q-100 -68 -78 -208q28 -162 148 -152q144 10 114 222q-20 128 -114 104q-38 -12 -42 -60q-4 -46 36 -66 q2 -6 -2 -12q-2 -6 -12 -10q-18 4 -34 18q-18 14 -22 40q-12 50 6 88q16 38 54 48q186 46 198 -174v-10q0 -240 -174 -244q-216 4 -224 208q-2 10 -2 20z" />
<glyph unicode="&#x26;" horiz-adv-x="1188" d="M50 456q0 132 62 242q78 138 214 204q-110 154 -126 288t46 220q32 46 86 76q52 28 124 34q20 2 42 2q108 0 192 -56q100 -66 104 -184q10 -224 -188 -240q-124 6 -134 108q12 34 58 42q-4 -82 58 -96q130 2 140 174q2 94 -80 140t-174 36q-100 -18 -148 -68 q-46 -50 -50 -120q-6 -72 28 -162q36 -88 94 -178q38 -60 84 -118q46 -56 96 -108q94 -96 190 -164q94 -68 168 -84q34 124 44 286q42 22 82 20q-8 -90 -56 -326q66 -16 138 -26q-6 -38 -28 -68q-66 2 -140 20q-102 -342 -424 -390q-20 -2 -40 -2q-178 0 -296 100 q-128 112 -162 326q-4 38 -4 72zM142 446q0 -22 2 -46q8 -90 50 -170q40 -80 118 -126q78 -42 152 -48q22 -4 44 -4q48 0 90 12q120 30 200 122q82 90 110 184q-120 48 -226 134q-106 88 -184 174q-42 46 -76 88q-32 42 -54 72q-118 -44 -176 -172q-50 -108 -50 -220z" />
<glyph unicode="'" horiz-adv-x="152" d="M38 1486q20 20 42 20t48 -20v-20q0 -104 -28 -244q-4 -2 -8 -2q-10 0 -22 8q-22 136 -32 258z" />
<glyph unicode="(" horiz-adv-x="492" d="M64 736q0 -36 2 -72q36 -466 310 -694q64 12 70 54q-276 242 -294 672q-20 426 238 760q-2 52 -50 58q-276 -402 -276 -778z" />
<glyph unicode=")" horiz-adv-x="494" d="M46 1466q278 -244 298 -678q20 -432 -242 -768q4 -52 50 -58q280 406 280 784q0 38 -2 76q-36 470 -312 700q-66 -12 -72 -56z" />
<glyph unicode="*" horiz-adv-x="782" d="M26 1126q94 10 280 30q24 130 68 324q66 -192 94 -314q158 -2 284 -14q-108 -72 -242 -136q64 -108 192 -322q-178 134 -298 252q-144 -118 -292 -266q54 120 162 364q-92 16 -248 82z" />
<glyph unicode="+" horiz-adv-x="656" d="M16 610q0 10 4 20q86 8 260 24q0 90 -2 360q24 16 48 16q18 0 36 -8q-4 -122 -14 -364q108 12 272 18q6 -14 6 -30q-2 -24 -14 -52q-88 -2 -262 -10q4 -92 18 -364q-32 -20 -62 -20q-12 0 -26 4q2 124 6 374q-62 -6 -248 -26q-22 30 -22 58z" />
<glyph unicode="," horiz-adv-x="164" d="M28 -132q76 174 2 256q28 16 50 16q16 0 28 -10q32 -52 32 -106q0 -76 -60 -158q-16 -6 -28 -6q-14 0 -24 8z" />
<glyph unicode="-" horiz-adv-x="428" d="M12 656q0 20 14 42q162 6 304 6q48 0 92 -2q2 -12 2 -24q0 -24 -6 -48q-180 8 -404 8q-2 8 -2 18z" />
<glyph unicode="." horiz-adv-x="206" d="M38 60q-2 12 2 24q10 68 58 68q12 0 28 -4q52 -16 52 -64q0 -24 -16 -60q-18 -38 -50 -36q-12 0 -28 6q-46 20 -46 66z" />
<glyph unicode="/" horiz-adv-x="814" d="M4 34q392 724 706 1426q52 -4 98 -38q-348 -692 -722 -1400q-12 -4 -26 -4q-26 0 -56 16z" />
<glyph unicode="0" horiz-adv-x="1024" d="M36 676q2 -622 424 -660h20q492 0 492 680v38q-8 708 -516 730h-20q-378 -2 -398 -730q-2 -30 -2 -58zM114 688v46q18 600 330 600h16q418 -18 426 -600v-34q0 -560 -408 -560h-16q-348 32 -348 548z" />
<glyph unicode="1" horiz-adv-x="550" d="M36 1270q104 78 138 106q34 30 92 82q20 8 40 8q16 0 32 -4q-6 -458 -20 -1372q98 8 174 14q2 -22 2 -42q0 -30 -6 -54q-142 -6 -428 -14q0 44 4 94q56 -4 166 -12q32 634 14 1260l-174 -150q-20 28 -34 84z" />
<glyph unicode="2" horiz-adv-x="740" d="M68 48q0 46 10 90q14 68 44 134q56 122 148 238t176 238q68 100 118 208q50 106 52 226q4 94 -74 152t-152 52q-180 -10 -206 -154q-36 -202 134 -196q68 28 20 122q36 18 68 -4q30 -164 -96 -180q-220 -6 -212 236q26 246 282 256q8 2 18 2q112 0 196 -74 q92 -78 96 -200v-24q0 -104 -32 -194q-36 -98 -94 -188q-38 -58 -80 -114l-84 -112q-80 -104 -142 -214q-64 -110 -78 -244q152 2 454 4q36 -50 8 -112q-280 14 -570 0q-4 26 -4 52z" />
<glyph unicode="3" horiz-adv-x="740" d="M44 250v12q0 82 24 112q36 14 66 14q-16 -38 -14 -114q0 -78 46 -138q22 -32 62 -52q40 -22 98 -22q112 8 176 78q66 70 86 204q28 176 -62 288q-92 112 -294 134q-4 24 0 48q158 58 248 140q92 80 96 174q4 128 -46 196q-50 70 -138 84q-100 8 -180 -46 q-80 -52 -90 -138q-6 -86 36 -140t132 -46q48 12 66 54t-20 98q32 16 60 12q32 -84 0 -142q-34 -60 -94 -74q-114 -18 -186 46q-74 64 -72 174q12 116 96 190q86 74 220 72q162 -2 242 -90q78 -90 66 -236q-18 -278 -342 -342q212 -30 306 -160q82 -116 82 -256v-36 q-22 -178 -114 -264q-90 -86 -286 -88h-2q-74 0 -124 24q-52 26 -84 66q-58 72 -60 164z" />
<glyph unicode="4" horiz-adv-x="830" d="M32 480q296 0 506 8q0 -242 -8 -490q26 -6 48 -6q28 0 50 10q-4 228 -6 492q58 0 174 -6q18 32 22 90q-126 -4 -194 -6q6 296 14 886q-24 24 -50 22q-12 0 -26 -4q-246 -416 -530 -996zM182 558q204 406 382 754q-8 -250 -26 -750q-88 -2 -356 -4z" />
<glyph unicode="5" horiz-adv-x="860" d="M36 334v6q2 102 64 164q64 62 162 62q146 -2 138 -192q-24 -30 -66 -16q26 136 -60 142q-142 12 -166 -148q10 -236 238 -234q398 -4 368 390q-42 514 -574 260q-28 20 -40 62q62 306 82 632q320 -12 528 10q6 -56 -4 -102q-196 -36 -460 10q-4 -252 -68 -508 q576 258 630 -348q2 -16 2 -32q0 -490 -434 -490q-20 0 -42 2q-142 6 -220 108q-78 100 -78 222z" />
<glyph unicode="6" horiz-adv-x="930" d="M52 498q0 124 30 278q96 482 488 690q46 -30 68 -84q-342 -152 -454 -602q114 156 278 182q164 24 280 -78q64 -54 102 -146q36 -88 36 -210v-8q-4 -232 -98 -380q-86 -138 -268 -138q-16 0 -32 2q-430 26 -430 494zM154 482q12 -374 328 -406h14q284 0 286 402 q-8 404 -256 404q-10 0 -18 -2q-340 -46 -354 -398z" />
<glyph unicode="7" horiz-adv-x="820" d="M52 1422q0 -44 42 -68q278 22 538 20q-174 -686 -438 -1370q42 -8 72 -8q32 0 54 6q246 714 436 1464q-232 -2 -698 -4q-6 -22 -6 -40z" />
<glyph unicode="8" horiz-adv-x="864" d="M56 448v10q20 302 282 358q-216 72 -216 326q18 328 314 342h8q298 0 306 -344q-10 -236 -248 -316q300 -46 314 -346q2 -12 2 -24q0 -468 -406 -470q-358 2 -356 464zM166 426q2 -358 246 -368q294 4 294 364v48q-32 300 -280 310q-248 -26 -260 -334v-20zM226 1128 q10 -250 192 -270q212 14 228 270q-6 278 -208 290q-208 -8 -212 -290z" />
<glyph unicode="9" horiz-adv-x="982" d="M112 968v24q10 458 364 464h16q396 0 430 -464q4 -52 4 -102q-2 -708 -568 -896q-72 28 -72 92q456 118 532 594q-70 -160 -312 -168q-394 -14 -394 456zM212 980q2 -388 272 -388q344 0 344 414v8q-32 380 -334 380h-30q-244 -48 -252 -414z" />
<glyph unicode=":" horiz-adv-x="234" d="M20 826q0 18 10 38q22 48 64 48q32 0 74 -26q36 -22 36 -52q0 -16 -12 -36q-26 -44 -70 -44q-16 0 -34 6q-68 20 -68 66zM28 322q0 42 44 72q36 24 62 24q38 0 60 -44q12 -24 12 -44q0 -54 -84 -84q-18 -6 -32 -6q-38 0 -56 46q-6 18 -6 36z" />
<glyph unicode=";" horiz-adv-x="202" d="M16 810q0 38 50 82q24 20 46 20q24 0 46 -26q24 -26 24 -56q0 -26 -20 -54q-32 -46 -68 -46q-24 0 -48 22q-30 28 -30 58zM40 98q92 210 2 310q34 18 60 18q20 0 34 -12q38 -62 38 -128q0 -92 -72 -190q-20 -6 -34 -6q-16 0 -28 8z" />
<glyph unicode="&#x3c;" horiz-adv-x="644" d="M28 830q386 -190 596 -440q4 40 4 76q0 18 -2 36q-190 248 -468 332q278 98 462 324q6 52 0 102q-274 -286 -592 -430z" />
<glyph unicode="=" horiz-adv-x="496" d="M36 684q-2 16 20 34q248 0 392 16q10 -20 10 -46q0 -16 -4 -32q-70 -6 -156 -6q-112 0 -252 10q-10 10 -10 24zM36 900q0 20 12 40q162 6 306 6h92q2 -12 2 -24q0 -24 -8 -50q-178 8 -402 8q-2 10 -2 20z" />
<glyph unicode="&#x3e;" horiz-adv-x="656" d="M34 1182q0 -20 2 -38q190 -248 468 -330q-278 -100 -462 -326q-6 -50 0 -102q274 288 592 430q-386 192 -596 440q-4 -38 -4 -74z" />
<glyph unicode="?" horiz-adv-x="810" d="M30 1152q10 -212 226 -230q230 0 260 152q14 226 -168 194q-24 -18 -22 -38q122 14 120 -126q-10 -124 -196 -128q-128 14 -122 184q18 276 256 288q338 -10 276 -364q-16 -72 -76 -142q-62 -70 -144 -156q-90 -98 -118 -208q-26 -108 -14 -274q12 -2 26 -2q34 0 82 10 q-12 158 -2 250q10 94 66 158q94 110 184 196t106 176q12 58 12 106q-2 300 -400 304q-346 -30 -352 -350zM294 74q0 76 60 78q10 2 18 2q88 0 88 -96q-4 -72 -90 -78q-64 2 -74 80q-2 8 -2 14z" />
<glyph unicode="@" horiz-adv-x="1314" d="M54 584v12q8 706 602 724h20q172 2 314 -116q148 -126 220 -302q38 -96 48 -196q2 -30 2 -60q0 -70 -16 -136q-24 -92 -80 -172q-58 -78 -156 -136q-104 -54 -164 12t-62 210q-58 -178 -260 -146q-194 38 -174 378q30 278 210 310q210 26 262 -110q4 18 8 34q2 18 10 38 q38 6 64 -50q-16 -40 -30 -94q-14 -56 -24 -118q-18 -116 -16 -230q2 -116 40 -172q18 -28 48 -36q32 -8 74 14q116 80 148 244t-12 328q-22 90 -66 170q-44 78 -108 136q-60 56 -136 84q-76 30 -168 22q-534 -40 -504 -632q22 -440 450 -542q20 -36 8 -70q-552 86 -552 602 zM422 606q0 -72 16 -120q18 -60 50 -90q20 -22 48 -32q22 -8 46 -8h8q64 4 120 52q56 50 64 118q4 66 8 110q4 46 14 112q-16 104 -112 140q-34 12 -64 12q-60 -2 -112 -48q-34 -32 -56 -84q-24 -52 -28 -128q-2 -18 -2 -34z" />
<glyph unicode="A" horiz-adv-x="1152" d="M36 198q0 26 4 56q26 108 94 128q15 8 27 8q32 0 47 -54q-30 -2 -52 -14t-38 -30q-29 -37 -29 -88q0 -9 1 -18q4 -62 46 -98q16 -12 36 -20q18 -8 44 -10h3q108 0 167 140q62 144 124 442q32 162 70 370q40 206 92 462q18 6 38 6q32 0 68 -18q112 -486 334 -1460 q-28 -11 -62 -11q-27 0 -58 7q-90 656 -270 1276q-52 -254 -100 -474q-50 -218 -102 -460q-38 -150 -106 -258q-56 -94 -160 -94q-16 0 -34 2q-184 28 -184 210zM572 726q6 16 26 66q68 4 272 18q4 -20 20 -84h-318z" />
<glyph unicode="B" horiz-adv-x="810" d="M48 2q43 225 43 610q0 347 -35 824q146 38 256 38q102 0 172 -34q146 -72 162 -252q1 -15 1 -29q0 -104 -39 -187q-42 -92 -158 -126q86 -10 172 -66q84 -54 112 -192q14 -78 14 -150q0 -132 -46 -240q-72 -168 -294 -200q-16 -2 -30 -2q-56 0 -122 28q-82 38 -122 90 q-2 -20 -8 -54q-6 -32 -6 -58q-16 -3 -34 -3t-38 3zM130 1392q24 -348 32 -526h16q382 0 382 278q0 24 -2 52q-32 214 -268 216q-72 0 -160 -20zM152 210q48 -68 104 -102t110 -36q8 -2 16 -2q118 0 208 116q80 106 80 254q0 26 -2 52q-4 128 -80 202q-76 72 -184 90 q-40 8 -80 8q-20 0 -38 -2q-62 -4 -122 -24q1 -52 1 -105q0 -214 -13 -451z" />
<glyph unicode="C" horiz-adv-x="1038" d="M54 756q8 664 582 722q24 2 46 2q236 0 292 -232q4 -31 4 -58q0 -144 -124 -178q-26 -7 -48 -7q-66 0 -96 63q18 38 50 50q19 -52 57 -52q11 0 23 4q86 33 86 117q0 23 -6 49q-40 168 -222 168q-28 0 -60 -4q-456 -64 -460 -644q-2 -34 -2 -67q0 -395 268 -561 q64 -40 160 -50q24 -2 46 -2q249 0 306 224q40 -38 40 -94v-8q-70 -188 -334 -192q-608 14 -608 750z" />
<glyph unicode="D" horiz-adv-x="964" d="M56 1424q144 36 264 36q492 0 582 -598q16 -118 16 -220q0 -630 -638 -630h-4q-90 0 -194 12q-6 578 -26 1400zM140 1162q0 -642 26 -1072h44q600 0 600 562q0 84 -14 180q-84 548 -490 548q-78 0 -164 -20q-2 -100 -2 -198z" />
<glyph unicode="E" horiz-adv-x="734" d="M72 1468q136 2 250 2q192 0 320 -6q2 -28 4 -48v-4q0 -22 -6 -58q-270 12 -478 32v-60q0 -215 12 -506q116 4 350 10q8 -16 4 -34t-14 -52q-112 2 -336 8q-1 -72 -1 -145q0 -292 19 -591q-34 -2 -106 -4q10 256 10 522q0 451 -28 934zM94 10q2 18 6 70q274 32 496 32 q44 0 86 -2q2 -24 2 -50q0 -24 -2 -50h-588z" />
<glyph unicode="F" horiz-adv-x="664" d="M68 1462q32 -491 32 -951q0 -257 -10 -505q38 2 114 4q-18 376 -22 738q108 -2 328 -6q13 34 13 68q0 9 -1 18q-114 -4 -340 -12q-14 312 -24 546q139 -13 306 -13q84 0 174 3q2 20 2 38q0 36 -6 72q-106 4 -244 4q-144 0 -322 -4z" />
<glyph unicode="G" horiz-adv-x="1008" d="M40 732q0 300 116 482q134 212 400 254q46 6 88 6q60 0 112 -14q90 -24 138 -92q30 -38 46 -98q8 -29 8 -55.5t-8 -50.5q-6 -26 -26 -46q-18 -20 -52 -26h-11q-41 0 -79 24q82 10 100 64q8 20 8 44q0 37 -20 84q-28 66 -120 90q-37 11 -78 11q-61 0 -132 -23 q-196 -60 -294 -246q-81 -154 -81 -379q0 -46 3 -95q38 -578 456 -578q27 0 56 2q211 37 211 280q0 128 -59 314q-98 -2 -274 -52q-6 27 -6 53q0 38 12 73q88 5 163 5q118 0 205 -13q42 -182 42 -322q0 -414 -372 -434h-4q-508 2 -544 644q-4 48 -4 94z" />
<glyph unicode="H" horiz-adv-x="762" d="M52 1458q28 8 50 8h6q22 0 52 -8v-630q146 4 434 10q2 157 2 310.5t-2 303.5q26 8 46 8q22 0 56 -8q-11 -371 -11 -717q0 -377 13 -723q-23 -3 -49 -3t-55 3q5 129 5 262q0 209 -13 428l-426 6q-5 -153 -5 -293q0 -220 13 -407q-28 -6 -52 -6q-22 0 -60 6q10 326 10 658 q0 392 -14 792z" />
<glyph unicode="I" horiz-adv-x="450" d="M32 40q0 -16 6 -30h354v24v20q-4 16 -16 36h-62q-134 0 -272 -12q-10 -20 -10 -38zM54 1444q0 -14 2 -24q4 -14 22 -32q30 1 63 1q98 0 219 -9q4 24 10 38q8 16 8 38q-92 6 -192 6q-64 0 -132 -2v-16zM152 12q26 2 108 4q-8 273 -7 546q0 436 19 870l-114 -6 q11 -292 11 -604q0 -390 -17 -810z" />
<glyph unicode="J" horiz-adv-x="838" d="M26 322q0 306 232 320q12 1 23 1q150 0 157 -149q0 -126 -134 -134q-18 18 -22 34t22 16q70 4 80 62q1 12 1 24q0 71 -53 100q-33 7 -61 7q-48 0 -85 -21q-60 -32 -82 -106q-20 -64 -20 -122q0 -87 44 -162q75 -124 250 -124h6q284 8 284 503q0 329 -126 875q34 16 64 16 q24 -2 44 -12q108 -510 108 -842q0 -622 -376 -622h-6q-312 18 -348 296q-2 20 -2 40zM296 1432q0 18 6 34q50 -2 107 -2q172 0 415 22q8 -20 10 -42q0 -24 -10 -50q-65 4 -149 4q-153 0 -369 -14q-10 26 -10 48z" />
<glyph unicode="K" horiz-adv-x="902" d="M30 -6q32 433 32 852q0 314 -18 620q32 12 64 12q26 0 50 -8q-12 -204 -12 -383q0 -99 4 -191q364 346 426 574q19 7 39 7q33 0 69 -19q-114 -290 -412 -566q47 14 86 14q149 0 170 -208q-4 -99 -4 -184q0 -479 138 -479q19 0 40 9q106 34 126 186q2 21 2 40 q0 131 -86 134q-42 0 -64 -46q-14 19 -14 36t14 32q32 34 75 34h5q122 -8 122 -208q0 -10 -2 -22q-14 -208 -212 -242q-18 -4 -34 -4q-187 0 -187 410q0 51 3 108q3 39 3 72q0 214 -132 214q-65 0 -163 -52q-26 -215 -26 -446q0 -143 10 -292q-30 -12 -52 -10q-20 0 -60 6z " />
<glyph unicode="L" horiz-adv-x="728" d="M22 1464q36 14 70 14q26 0 52 -10q-9 -544 -9 -1046q0 -168 1 -330q266 34 550 34q10 -58 10 -100q0 -16 -2 -32q-159 8 -323 8t-333 -8q21 338 21 656q0 424 -37 814z" />
<glyph unicode="M" horiz-adv-x="1132" d="M34 -6q35 306 35 671.5t-35 790.5q40 24 70 24q14 0 26 -4q92 -360 274 -564q188 250 302 560q12 1 23 1q38 0 75 -15q-70 -508 -69 -834q0 -587 224 -586h13q90 6 90 84q0 43 -28 108q14 13 31 13q21 0 45 -19q4 -28 4 -50q-2 -178 -190 -188h-4q-176 0 -220 222 q-43 252 -43 494q0 284 59 556q-130 -246 -310 -506q-200 206 -296 498q51 -531 51 -1099q0 -78 -1 -157q-46 -6 -68 -6q-24 0 -58 6z" />
<glyph unicode="N" horiz-adv-x="856" d="M54 1464q23 5 45 5l55 -7q252 -646 556 -1168q-8 484 -20 1176q32 8 62 8q32 0 62 -10q-25 -532 -25 -1030q0 -221 5 -436q-22 -2 -44 0q-186 376 -316 618t-280 524q8 -378 24 -1136q-36 -14 -72 -14q-24 0 -48 6q17 412 17 762q0 389 -21 702z" />
<glyph unicode="O" horiz-adv-x="1042" d="M28 790v65q0 599 528 599h14q434 -6 434 -640q0 -42 -2 -88q-24 -726 -466 -726q-26 0 -54 2q-442 40 -454 788zM146 836q0 -24 2 -48q24 -676 366 -706q18 -2 36 -2q348 0 350 658q2 44 2 84q0 546 -334 550h-10q-410 0 -412 -536z" />
<glyph unicode="P" horiz-adv-x="856" d="M46 1372q234 98 396 98q320 0 362 -372v-18q0 -417 -557 -417q-33 0 -67 1v-65q0 -323 18 -605q-24 -6 -50 -6q-28 0 -60 6q19 285 19 542q0 464 -61 836zM120 1322q50 -338 56 -572q46 -4 86 -4q438 0 440 316q0 10 -2 20q-28 296 -296 296h-4q-118 0 -280 -56z" />
<glyph unicode="Q" horiz-adv-x="1076" d="M44 860q0 612 536 612h14q442 -6 442 -650q-2 -42 -2 -88q-26 -736 -476 -736q-26 0 -52 2q-448 40 -460 798q-2 32 -2 62zM170 796q26 -684 372 -714q18 -2 36 -2q352 0 356 666q2 46 2 88q0 550 -338 554h-10q-418 0 -418 -544v-48zM468 192l6 22t20 56q44 14 74 14 q14 0 26 -4q36 -10 54 -42q12 -24 16 -58q6 -34 6 -74q1 -36 1 -74t-1 -78v-16q0 -70 16 -124q10 -40 36 -66q24 -28 68 -32q15 -2 29 -2q55 0 103 30q60 36 68 104q1 9 1 18q0 51 -29 92q-33 44 -80 44h-4q-28 -2 -58 -24q-30 -20 -60 -64q-14 24 -18 34q-2 12 -2 34 q18 36 44 56q28 22 58 30q21 5 41 5q51 0 99 -31q68 -44 76 -134v-14q0 -100 -52 -170q-54 -74 -190 -80q-72 0 -112 30q-42 28 -62 76q-16 34 -22 74q-8 40 -10 84q-4 78 -4 154q0 74 -20 114q-14 26 -42 32q-6 1 -13 1q-25 0 -63 -17z" />
<glyph unicode="R" horiz-adv-x="978" d="M48 1388q210 90 354 90q272 0 308 -322v-16q0 -216 -266 -326q13 1 26 1q174 0 174 -234q0 -27 -2 -57q-11 -107 -11 -190q0 -274 117 -280q142 18 154 186q1 16 1 31q0 146 -87 145h-8q-28 -2 -54 -44q-8 14 -22 42q4 56 79 56h5q138 -4 138 -176q0 -26 -2 -54 q-26 -246 -208 -246h-11q-204 0 -204 365q0 68 7 149q3 29 3 55q0 178 -165 178q-76 0 -186 -37q-10 -127 -10 -335q0 -161 6 -371q-30 -6 -56 -6h-8q-24 -2 -56 2q38 279 38 594q0 375 -54 800zM138 1326q18 -118 26 -222q10 -106 20 -262q422 74 422 322v24 q-32 208 -212 208q-102 0 -256 -70z" />
<glyph unicode="S" horiz-adv-x="904" d="M36 316q0 22 2 44q10 110 72 196q58 80 147 80h13q32 -20 36 -78q-11 2 -21 2q-55 0 -95 -54q-48 -62 -60 -148q-4 -26 -4 -52q0 -32 6 -64q8 -56 40 -100q20 -28 50 -48q28 -20 68 -28q63 -10 126 -10l78 4q102 10 172 86q36 42 58 106q24 64 26 160q1 14 1 28 q0 128 -51 198q-54 78 -138 122q-100 50 -216 80q-116 28 -190 98q-40 38 -62 94q-15 43 -15 104q0 18 1 38q44 312 404 312h26q252 -6 282 -274q1 -10 1 -20q0 -56 -37 -128q-42 -86 -156 -96q-11 -1 -22 -1q-89 0 -134 59q-25 33 -25 71q0 41 29 87q21 13 38 13 q15 0 28 -9q-37 -27 -37 -64q0 -19 9 -40q24 -57 94 -57q11 0 22 1q50 6 88 40q30 27 30 96q0 18 -2 40q-12 94 -70 158t-144 64q-134 -2 -222 -60q-86 -56 -102 -206q-1 -15 -1 -28q0 -49 17 -84q20 -46 60 -76q76 -60 192 -92t218 -90q84 -50 142 -132q56 -82 56 -228v-4 q-2 -124 -32 -206t-80 -132q-92 -94 -228 -102h-64q-100 0 -188 16q-68 12 -114 46q-48 34 -76 82q-28 50 -40 110q-6 38 -6 76z" />
<glyph unicode="T" horiz-adv-x="690" d="M24 1412q0 32 16 56q314 0 610 4q10 -32 10 -68v-26q-92 2 -278 6q-3 -212 -3 -437q0 -451 11 -955q-28 -8 -50 -8h-4q-24 2 -56 6q8 584 12 1400q-88 -6 -264 -16q-4 20 -4 38z" />
<glyph unicode="U" horiz-adv-x="904" d="M18 960q0 226 26 506q45 5 90 5q22 0 44 -1q-37 -353 -37 -617q0 -760 307 -785q10 -1 19 -1q283 0 283 730q0 280 -42 669q30 6 60 6q44 0 82 -16q20 -266 20 -484q0 -986 -400 -986h-12q-440 16 -440 974z" />
<glyph unicode="V" horiz-adv-x="1018" d="M28 1450q27 11 56 11t60 -11q102 -708 340 -1168q248 486 398 1176q16 8 40 8q32 0 76 -16q-212 -774 -514 -1438q-296 642 -456 1438z" />
<glyph unicode="W" horiz-adv-x="1268" d="M42 1464q28 6 48 8q2 0 4 -2q20 0 56 -10q84 -706 248 -1212q80 126 250 510q122 -330 236 -490q160 502 226 1188q26 4 56.5 4t65.5 -4q-122 -812 -324 -1440q-146 262 -270 568q-50 -236 -248 -584q-226 660 -348 1464z" />
<glyph unicode="X" horiz-adv-x="916" d="M34 6q76 178 302 708q-68 180 -276 716q33 19 76 19q22 0 46 -5q72 -320 250 -642q168 298 306 648q32 12 70 12q30 0 64 -8q-122 -252 -366 -752q96 -174 384 -692h-126q-142 290 -340 618q-144 -254 -256 -626q-44 2 -134 4z" />
<glyph unicode="Y" horiz-adv-x="966" d="M38 1470q32 12 66 12q22 0 44 -4q112 -338 350 -682q226 338 332 678q31 5 56 5q34 0 58 -9q-158 -400 -404 -780q4 -234 8 -698q-46 -12 -80 -12q-26 0 -46 8q28 352 32 706q-250 376 -416 776z" />
<glyph unicode="Z" horiz-adv-x="860" d="M20 6q472 760 648 1370q-280 -34 -570 -48q-5 27 -5 53q0 40 13 77q348 0 708 8q-248 -742 -622 -1370q282 22 604 44q10 -48 10 -94q0 -20 -2 -40h-784z" />
<glyph unicode="[" horiz-adv-x="442" d="M62 1562q142 4 292 4q14 -40 0 -74q-92 12 -216 0q2 -504 8 -1508q102 6 226 22q2 -12 2 -22q0 -44 -14 -76h-100q-98 0 -190 6q14 770 -8 1648z" />
<glyph unicode="\" horiz-adv-x="814" d="M22 1410q8 36 58 58q330 -746 688 -1414q-34 -40 -86 -54q-332 690 -660 1410z" />
<glyph unicode="]" horiz-adv-x="406" d="M26 1478v22q0 44 14 76h100q96 0 188 -6q-14 -770 8 -1648q-142 -4 -292 -4q-14 40 0 74q94 -12 218 0q-4 504 -10 1508q-102 -6 -226 -22z" />
<glyph unicode="^" horiz-adv-x="832" d="M30 842q250 210 384 598q102 -318 388 -592q-50 -6 -92 0q-226 184 -294 462q-50 -280 -298 -472q-12 -2 -30 -2q-24 0 -58 6z" />
<glyph unicode="_" horiz-adv-x="720" d="M26 -2q0 20 18 42q346 0 626 8q8 -14 8 -32q0 -12 -6 -28q-282 8 -644 2q-2 4 -2 8z" />
<glyph unicode="`" horiz-adv-x="350" d="M44 1422q2 40 42 66q124 -44 232 -164q-6 -32 -30 -40q-112 80 -242 128q-2 6 -2 10z" />
<glyph unicode="a" horiz-adv-x="888" d="M26 384q0 100 34 220q28 96 96 152q70 56 156 72q58 10 108 10q55 0 100 -12q86 -24 138 -88q4 26 4 76q0 33 -2 76q-4 106 -70 178q-36 38 -94 54q-30 9 -67.5 9t-82.5 -9q-96 -30 -140 -90q-36 -48 -37 -112q0 -17 3 -34q-28 -40 -74 -58q-13 48 -13 90q0 71 37 124 q56 86 154 122q52 20 108 26q24 2 48 2q32 0 64 -4q120 -18 204 -108q61 -64 61 -198q0 -51 -9 -112q-76 -388 -76 -556v-24q3 -133 56 -133q12 0 26 7q36 24 46 62q5 20 5 41t-5 43q12 2 32 -8q18 -12 26 -20q-2 -58 -20 -98q-20 -38 -48 -60q-36 -28 -76 -28q-18 0 -36 6 q-62 18 -80 82q-18 -38 -84 -68q-68 -32 -148 -34h-12q-38 0 -74 8q-44 8 -82 32q-124 94 -162 238q-14 58 -14 124zM124 410q0 -46 8 -88q14 -80 48 -136q64 -104 178 -116q12 -2 24 -2q104 0 212 100q4 164 18 272t30 222q-40 46 -92 70q-52 22 -108 26h-16 q-94 0 -180 -58q-92 -66 -116 -200q-6 -48 -6 -90z" />
<glyph unicode="b" horiz-adv-x="888" d="M32 1420q30 48 100 60q36 -98 52 -540q78 154 262 178q24 2 46 2q344 0 364 -580v-50q0 -462 -388 -494q-10 -2 -20 -2q-152 2 -280 206q1 -29 1 -57q0 -70 -7 -137q-22 -8 -48 -10t-50 6q10 118 20 280t12 336q2 94 2 186q-2 94 -4 182q-6 134 -22 248q-14 112 -40 186z M176 312q24 -58 60 -102q36 -42 78 -72q78 -50 164 -50h8q90 0 160 64q58 54 92 150q30 80 30 194q0 26 -2 52q-8 150 -48 250q-40 98 -98 148q-74 66 -158 66q-40 0 -82 -16q-132 -46 -194 -194q0 -30 -2 -70v-88q-2 -88 -4 -180q-2 -94 -4 -152z" />
<glyph unicode="c" horiz-adv-x="820" d="M24 598v16q34 536 460 584q24 2 44 2q176 0 216 -170q4 -27 4 -51q0 -119 -100 -147q-16 -4 -30 -4q-56 0 -74 58q8 26 26 34q22 -52 50 -52q8 0 16 4q64 29 64 104q0 23 -6 50q-43 117 -156 117q-18 0 -38 -3q-342 -58 -372 -520q-3 -47 -3 -90q0 -439 333 -476h18 q204 0 258 220q42 -10 56 -34q-38 -234 -302 -250q-20 -2 -40 -2q-424 2 -424 610z" />
<glyph unicode="d" horiz-adv-x="984" d="M32 536q0 576 400 586q196 -4 270 -134q70 436 110 486q78 -50 84 -102q-24 -66 -48 -168t-44 -222q-12 -76 -22 -158q-12 -82 -18 -160q-14 -148 -14 -280q0 -130 16 -212q6 -40 20 -66q12 -26 30 -38q18 -15 36 -15q19 0 38 17q22 18 22 53q0 23 -10 53q13 5 25 5 q27 0 41 -31v-22q0 -112 -120 -130q-9 -2 -18 -2q-76 0 -132 124q-72 -130 -280 -130h-28q-350 46 -358 546zM118 528q0 -104 28 -188q30 -88 80 -150q92 -110 224 -112h4q130 0 226 128q-2 48 -4 106v124q0 118 6 242q4 122 12 212q-58 128 -194 154q-26 4 -50 4 q-106 0 -194 -88q-58 -60 -96 -162q-38 -104 -42 -256v-14z" />
<glyph unicode="e" horiz-adv-x="878" d="M42 602q20 590 412 590h2q365 -2 365 -419q0 -36 -3 -75q-174 -6 -690 -24q-1 -29 -1 -56q0 -488 403 -528q24 -2 45 -2q196 0 195 207v19q-6 120 -114 124q-48 -8 -84 -54q-8 14 -28 58q30 70 107 70h13q170 -8 170 -174v-20q-12 -318 -280 -318h-38q-462 36 -474 602z M142 748q150 6 604 24q-36 296 -278 300h-10q-284 0 -316 -324z" />
<glyph unicode="f" horiz-adv-x="670" d="M38 804q0 12 4 26q204 4 366 18q12 -24 12 -50q0 -18 -6 -38q-164 8 -364 12q-12 12 -12 32zM64 1204q6 146 68 212q60 64 184 90h26q52 0 100 -12q60 -14 110 -64q100 -96 100 -236q0 -38 -6 -80q-44 -174 -192 -178q-132 6 -150 104q-2 17 -2 32q0 114 106 130 q24 -4 26 -38q-87 -3 -87 -76q0 -13 3 -28q11 -65 85 -65q10 0 21 1q134 19 134 162v16q-10 142 -80 202q-55 46 -134 46q-24 0 -50 -4q-140 -22 -168 -142q-15 -70 -15 -200q0 -91 7 -210q8 -156 22 -372t22 -502q-32 -8 -68 -8q-26 0 -54 4q21 175 21 384q0 75 -3 154 q-10 302 -26 678z" />
<glyph unicode="g" horiz-adv-x="942" d="M28 570v46q0 554 455 554h3h2q188 -2 278 -134q92 -134 94 -342q-12 -168 -14 -368q0 -198 -22 -422q-38 -462 -378 -476h-10q-330 0 -330 326q0 251 214 290q33 6 60 6q152 0 154 -168q-13 -129 -110 -129q-26 0 -58 9q-8 26 -14 42t12 36q42 -22 68 -22q44 0 44 60 q0 106 -87 106q-17 0 -37 -4q-171 -41 -171 -188q0 -13 1 -26q6 -120 80 -186q59 -54 164 -54q22 0 46 2q152 18 222 216q64 182 64 470v50q-12 -56 -94 -114q-80 -58 -206 -60q-188 6 -306 136q-116 128 -124 344zM124 616q0 -98 26 -176q28 -84 74 -142q38 -48 86 -78 t100 -42q26 -4 54 -4q68 0 136 36q96 50 154 184q8 136 22 410q-20 138 -108 208q-86 68 -186 68h-6q-58 0 -114 -24q-56 -22 -102 -68q-58 -54 -96 -144t-40 -216v-12zM778 878q30 238 56 286q56 -32 94 -86q-48 -136 -72 -394q-26 64 -78 194z" />
<glyph unicode="h" horiz-adv-x="904" d="M24 1456q42 46 102 54q20 -272 22 -576q18 46 94 120t252 74q108 0 166 -46q58 -44 82 -118q21 -65 21 -146q0 -29 -3 -60q-8 -116 -28 -236q-18 -116 -32 -220q-7 -49 -6 -91q0 -47 8 -83t28 -58q20 -24 54 -30q30 -4 44 22q14 24 16 76q30 -12 44 -44q0 -38 -22 -72 q-24 -34 -76 -34h-2q-68 0 -102 36t-48 96q-10 52 -10 116q0 50 6 106q16 130 28 256q8 70 10 132q0 64 -8 116q-12 72 -52 114q-38 44 -118 44q-170 0 -256 -114q-84 -111 -84 -292v-8q-2 -139 -2 -287t2 -305q-34 -6 -64 -6q-24 0 -44 4q24 457 24 788q0 456 -46 672z" />
<glyph unicode="i" horiz-adv-x="318" d="M50 1376q0 66 86 86q18 4 36 4q64 0 90 -70q5 -21 5 -39q0 -75 -81 -99q-16 -6 -28 -8h-14h-3q-62 0 -85 84q-6 22 -6 42zM102 1076q26 20 56 20q26 0 52 -14q-7 -322 -7 -642q0 -214 3 -428q-42 -12 -86 -12h-16q12 236 12 494q0 278 -14 582z" />
<glyph unicode="j" horiz-adv-x="706" d="M14 -214v7q0 124 72 217q74 98 192 106q18 2 34 2q105 0 150 -68q50 -78 54 -150q-4 -126 -64 -154q-62 -30 -96 -32q-34 0 -62 10q-26 12 -42 30q-30 32 -30 75v5q2 46 46 74q12 -2 20 -12q6 -10 16 -32q-8 -24 -6 -42q2 -20 10 -32q16 -24 47 -24q16 0 35 6 q56 18 64 92q1 16 1 32q0 162 -144 162q-15 0 -31 -2q-108 -24 -146 -120q-31 -84 -31 -150q0 -11 1 -22q6 -38 22 -96t72 -100q32 -20 78 -34q34 -9 81 -9q16 0 33 1q108 14 158 80t60 166q3 30 3 62q0 56 -9 120q-12 100 -36 210q-44 204 -98 416q-50 197 -50 351v23 q34 28 60 38q12 6 28 6t38 -8q-5 -42 -5 -88q0 -56 7 -118q14 -112 36 -234q40 -224 84 -452q26 -138 26 -252q0 -76 -12 -140q-18 -106 -84 -174q-64 -66 -196 -72h-26q-192 0 -272 94q-86 98 -88 228v4zM374 1326v16q14 108 102 108h12q102 -16 102 -118q0 -8 -2 -16 q-12 -102 -100 -102h-10q-104 10 -104 112z" />
<glyph unicode="k" horiz-adv-x="888" d="M30 2q32 426 32 840q0 310 -18 612q32 10 64 10q24 0 48 -6q-12 -202 -12 -379q0 -98 4 -189q360 342 420 566q20 8 41 8q32 0 67 -18q-112 -288 -408 -560q48 14 86 14q147 0 168 -204q-4 -99 -4 -183q0 -472 136 -472q19 0 40 9q104 34 124 184q2 21 2 39 q0 129 -86 131q-40 0 -62 -44q-14 19 -14 36t14 32q30 32 73 32h5q120 -6 120 -204v-22q-16 -202 -210 -236q-18 -4 -34 -4q-185 0 -185 408q0 47 3 100q3 39 3 72q0 211 -130 211q-64 0 -161 -51q-24 -208 -24 -432q0 -145 10 -296q-38 -2 -112 -4z" />
<glyph unicode="l" horiz-adv-x="230" d="M54 -4q15 350 15 716t-15 748q26 12 52 12t54 -12q2 -484 8 -1452q-56 -12 -94 -12h-20z" />
<glyph unicode="m" horiz-adv-x="1392" d="M50 1028q4 30 14 52q12 20 34 40q38 -48 52 -126q66 198 282 204q200 0 216 -270q44 266 306 272h4q98 0 150 -42q52 -44 72 -118q16 -56 16 -125q0 -25 -2 -53q-6 -102 -24 -208q-12 -72 -24 -140q-12 -70 -22 -134q-12 -87 -12 -159q0 -27 2 -51q6 -90 66 -120 q16 -5 32 -5q34 0 66 23q48 34 52 112q-4 74 -66 76q-48 -6 -48 -91v-7q-34 10 -48 34q4 118 92 118q118 -12 118 -122q0 -14 -2 -32q-12 -96 -68 -136q-44 -34 -112 -34h-30q-42 4 -68 26q-24 22 -38 58q-20 52 -20 125q0 22 2 47q6 104 24 220l32 236q8 69 8 127 q0 42 -4 79q-10 74 -46 116q-34 42 -107 42h-7q-116 -4 -168 -74q-54 -70 -80 -246q-14 -94 -22 -224q-10 -130 -20 -302q-18 -8 -42 -10q-26 -4 -48 2q16 324 18 508v21q0 168 -30 245q-18 46 -50 64q-30 20 -76 20q-138 0 -186 -86q-48 -88 -60 -310q-8 -120 -10 -284 q-4 -166 -12 -382q-30 -12 -50 -12q-18 0 -46 10q10 190 16 328q8 138 10 236q2 82 2 140q0 60 -2 104q-2 80 -12 124q-10 46 -24 94z" />
<glyph unicode="n" horiz-adv-x="942" d="M44 1116q30 34 82 40q16 -30 28 -104q34 48 110 100q74 52 254 52q100 0 154 -46q54 -44 76 -120q19 -66 18 -151v-31q-6 -102 -20 -212q-16 -132 -34 -258q-10 -71 -11 -130q0 -46 7 -84q8 -48 28 -82q20 -32 56 -46q28 -12 54 20q26 30 28 80q44 -14 48 -58 q-2 -36 -42 -68q-32 -22 -72 -22q-14 0 -28 2q-68 10 -102 54t-44 110q-9 48 -9 104q0 62 11 134q18 136 34 268q10 72 14 136q1 22 1 43q0 41 -5 77q-8 72 -46 116q-36 44 -114 44q-160 0 -260 -66q-98 -65 -98 -247v-7q4 -440 6 -762q-26 -6 -52 -8q-32 0 -60 10 q15 408 15 671q0 350 -27 441z" />
<glyph unicode="o" horiz-adv-x="834" d="M24 496q0 52 4 108q34 578 382 578q26 0 54 -4q348 -42 348 -622v-24v-19q0 -505 -420 -505h-30q-338 14 -338 488zM124 490q0 -398 256 -410h22q328 0 328 456v4q-6 540 -278 572q-18 2 -36 2q-272 0 -288 -518q-4 -56 -4 -106z" />
<glyph unicode="p" horiz-adv-x="932" d="M30 -358q22 136 34 290q10 154 14 308v90q0 134 -4 258q-8 166 -18 280q-6 62 -12 106q-8 42 -14 62q24 64 92 104q20 -82 26 -168q72 190 306 198h6q420 0 432 -580v-2q0 -522 -394 -566h-16q-252 0 -326 188q1 -54 1 -106q0 -262 -17 -484h-16q-20 0 -40 4 q-24 2 -54 18zM156 764q0 -42 2 -92q0 -92 4 -186q2 -92 4 -136q28 -114 110 -180q82 -64 176 -70h12q46 0 90 16q50 18 94 56q68 62 110 176q34 100 34 246v48q-8 160 -56 258q-50 100 -120 148t-152 48q-14 0 -28 -2q-98 -10 -170 -72q-40 -32 -68 -80q-28 -46 -40 -104 q-2 -26 -2 -64v-10z" />
<glyph unicode="q" horiz-adv-x="928" d="M28 496q0 52 4 110q34 576 382 576q26 0 54 -4q350 -42 350 -622q0 -12 -2 -24v-19q0 -511 -420 -511h-30q-338 14 -338 494zM128 490q0 -398 256 -410h22q328 0 328 456v4q-4 540 -278 572q-18 2 -36 2h-2q-268 0 -286 -518q-4 -56 -4 -106zM570 234q10 14 46 48 q46 -216 163 -216q54 0 125 48q4 -14 4 -28q0 -34 -22 -58q-78 -32 -136 -32h-3q-155 0 -177 238z" />
<glyph unicode="r" horiz-adv-x="790" d="M36 1134q26 10 48 18q24 8 50 0q16 -36 30 -128q94 182 284 182h26q282 -24 288 -284q-6 -232 -224 -232h-4q-50 2 -80 36t-38 58q-9 19 -9 39q0 23 13 47q22 44 56 64q30 -6 36 -38q-22 -28 -26 -54q-6 -24 0 -44q10 -36 48 -52q18 -7 34 -7q18 0 34 9q32 18 74 66 q29 33 29 80q0 19 -5 40q-14 74 -72 134q-51 55 -131 55q-10 0 -21 -1q-94 -6 -150 -40q-58 -34 -88 -98q-49 -105 -49 -300q0 -28 1 -58q4 -143 4 -340q0 -131 -2 -286q-32 -8 -82 -8h-32q14 276 14 494q0 72 -2 138q-4 264 -54 510z" />
<glyph unicode="s" horiz-adv-x="698" d="M26 248v20q0 108 54 168q58 66 118 78q23 5 44 6q10 0 20 -2q32 -4 58 -20q46 -26 64 -76q6 -17 7 -35q0 -33 -23 -65q-12 -6 -30 -4q-18 0 -30 8q13 32 13 57q0 27 -15 47q-23 35 -68 35q-7 0 -14 -1q-54 -8 -94 -58q-40 -48 -40 -144v-5q0 -80 62 -129q62 -50 142 -58 q24 0 54 4t62 14q60 22 116 70q54 46 68 126q4 28 4 53q0 72 -30 123q-40 68 -106 116q-82 56 -178 100t-160 108q-34 36 -54 82q-17 37 -17 86q0 10 1 20q2 114 88 184q76 62 196 62h28q162 -10 214 -94q34 -57 34 -124q0 -32 -8 -66q-26 -14 -46 -12q-22 2 -36 16 q34 36 34 75q0 33 -24 69q-51 74 -168 74h-12h-4q-44 0 -124 -40q-82 -42 -92 -134q-2 -15 -2 -28q0 -36 12 -64q18 -40 52 -70q62 -58 158 -102t178 -110q68 -56 110 -140q32 -64 32 -156q0 -28 -2 -58q-6 -58 -28 -102q-22 -42 -56 -72q-60 -54 -144 -72q-80 -16 -146 -16 h-8q-112 2 -186 86q-74 82 -78 170z" />
<glyph unicode="t" horiz-adv-x="614" d="M20 1222q0 14 2 26h70q310 0 498 16q4 -16 4 -30q0 -38 -20 -70q-280 10 -550 16q-4 22 -4 42zM256 1072v384q32 22 72 22q18 0 38 -6q-23 -329 -23 -705q0 -358 21 -759v-14q-30 -8 -54 -8q-28 0 -50 12q-4 528 -4 1074z" />
<glyph unicode="u" horiz-adv-x="898" d="M48 870q0 142 12 310q34 12 64 12q24 0 46 -8q-22 -233 -22 -417q0 -704 326 -711h15q274 0 274 578q0 229 -43 548q38 12 68 12q20 0 38 -6q22 -238 22 -430q0 -768 -360 -768h-2q-438 16 -438 880z" />
<glyph unicode="v" horiz-adv-x="1066" d="M28 1184q232 -624 494 -1180q248 566 504 1180q-21 3 -42 3q-42 0 -82 -13q-164 -544 -374 -928q-254 424 -374 938q-32 10 -64 10q-30 0 -62 -10z" />
<glyph unicode="w" horiz-adv-x="1188" d="M46 1186q200 -630 344 -1184q76 160 226 480q56 -118 222 -470q82 294 330 1174q-32 8 -60 8q-34 0 -64 -12q-94 -506 -220 -902q-124 182 -208 414q-104 -256 -206 -412q-142 374 -252 904q-32 8 -60 8t-52 -8z" />
<glyph unicode="x" horiz-adv-x="860" d="M28 6q102 206 304 618q-74 140 -298 558q19 9 47 9q33 0 79 -13q120 -318 238 -510q128 210 238 518q36 8 64 8q34 0 58 -12q-98 -188 -292 -562l352 -608q-32 -18 -68 -18q-28 0 -58 12q-138 354 -288 574q-136 -212 -262 -578q-28 -5 -53 -5q-34 0 -61 9z" />
<glyph unicode="y" horiz-adv-x="886" d="M38 702q0 196 56 454q24 12 54 12q26 0 52 -10q-51 -269 -51 -462q0 -453 279 -492q17 -2 33 -2q267 0 267 651q0 138 -12 305q19 7 38 7q35 0 72 -23q14 -268 14 -558q0 -314 -16 -650q-38 -514 -378 -514q-42 0 -88 8q-283 62 -283 347q0 38 5 79q50 210 222 228 q200 0 212 -154v-13q0 -134 -118 -153q-66 16 -68 60q6 42 10 42q42 -16 69 -16q46 0 46 48q0 12 -3 28q-18 86 -134 88q-152 -18 -162 -180q4 -292 250 -320q284 0 334 422q12 79 12 266q0 70 -2 156q-56 -230 -294 -230h-20q-396 58 -396 576z" />
<glyph unicode="z" horiz-adv-x="902" d="M18 8q406 586 696 1082q-99 10 -218 10q-183 0 -412 -24q-19 28 -19 61q0 22 9 47q268 2 800 6q-384 -638 -686 -1090q117 -5 229 -5q223 0 421 19q23 -37 23 -64q0 -29 -27 -46q-205 7 -458 7q-168 0 -358 -3z" />
<glyph unicode="{" horiz-adv-x="604" d="M22 702q74 -30 132 -64t80 -114q8 -32 2 -66q-8 -36 -22 -70q-26 -66 -60 -134q-34 -66 -30 -130q6 -100 64 -160q58 -62 128 -64h20q188 0 248 98q-2 36 -24 66q-68 -110 -214 -114q-60 2 -106 54q-46 54 -40 120q8 66 48 128q38 64 64 130q16 36 20 74q6 38 -4 78 q-16 68 -66 102q-50 32 -108 62q72 26 120 62t54 90q12 92 -38 198t-106 194q-30 72 2 156q30 86 126 106q158 48 228 -80l36 48q-30 54 -110 80q-40 12 -86 12q-44 0 -92 -12q-138 -38 -170 -128q-32 -92 2 -184q52 -138 104 -238t14 -168q-32 -60 -88 -86t-128 -46z" />
<glyph unicode="|" horiz-adv-x="286" d="M88 1500q34 12 68 12q16 0 34 -2v-80q0 -716 -16 -1454q-22 -26 -68 -26h-8q24 802 -10 1550z" />
<glyph unicode="}" horiz-adv-x="614" d="M34 1464q2 -36 22 -66q68 110 216 114q58 -2 106 -54q46 -54 38 -120t-46 -128q-40 -64 -66 -130q-14 -36 -20 -74t4 -78q18 -68 68 -102q50 -32 108 -62q-74 -26 -120 -62q-48 -36 -56 -90q-12 -92 38 -198q52 -106 106 -194q32 -72 0 -156q-32 -86 -126 -106 q-158 -48 -228 80q-14 -16 -38 -46q30 -56 112 -82q40 -12 84 -12t92 12q140 38 172 130q30 90 -4 182q-50 138 -102 238q-52 102 -14 170q32 58 88 84t126 46q-72 30 -132 64q-58 34 -80 114q-8 32 0 66q6 36 20 72q26 64 62 132q34 68 30 130q-8 100 -64 162 q-58 60 -128 62h-20q-188 0 -248 -98z" />
<glyph unicode="~" horiz-adv-x="696" d="M32 786v4q0 54 30 100q16 24 44 42q26 18 66 22q14 2 28 2q32 0 56 -10q34 -14 56 -40q44 -46 78 -102t114 -52q80 2 106 56t-26 124q16 8 28 10q14 2 32 2q24 -66 24 -116q0 -38 -14 -68q-34 -68 -136 -82q-18 -4 -34 -4q-32 0 -54 10q-36 16 -60 40q-44 48 -76 104 q-32 58 -106 50q-52 -6 -90 -54q-36 -50 16 -118q-16 -4 -30 -6q-12 -2 -28 -2q-22 30 -24 88z" />
<glyph unicode="&#xa1;" horiz-adv-x="286" d="M40 1380q6 74 102 94q98 -2 100 -94q-6 -104 -96 -104h-4q-88 -2 -102 104zM86 -10q8 404 8 1100q42 20 100 24q-2 -460 16 -1112q-34 -14 -78 -14q-22 0 -46 2z" />
<glyph unicode="&#xa2;" horiz-adv-x="860" d="M36 714v26q20 522 438 570q22 2 42 2q84 0 154 -38q84 -48 104 -122q26 -98 -6 -152q-34 -54 -94 -70q-84 -18 -110 64q8 26 28 34q10 -34 30 -46t44 -4q44 20 60 60q18 38 -4 100q-32 70 -92 96t-132 14q-170 -30 -268 -158q-96 -128 -106 -364q-6 -244 92 -370 q96 -124 276 -128q178 6 234 96q54 88 54 172q24 2 48 -26q2 -10 2 -20q0 -18 -2 -38q-4 -34 -16 -70q-24 -64 -92 -122q-70 -56 -216 -66h-30q-210 0 -324 146q-114 148 -114 414zM410 1530q18 6 46 6q20 0 44 -4q0 -768 -2 -1558q-24 -24 -72 -26q-4 0 -10 2 q24 818 -6 1580z" />
<glyph unicode="&#xa3;" horiz-adv-x="1712" d="M58 632q22 22 50 22q116 -302 228 -570q104 60 222 106q18 -30 24 -52q-132 -48 -270 -110q-114 334 -254 604zM414 554q0 108 86 156q44 24 84 24q120 0 216 -200q94 -194 20 -282q-22 -28 -62 -46q-54 -24 -102 -24q-124 0 -194 176q-48 116 -48 196zM454 560 q0 -74 44 -184q64 -158 166 -158q34 0 74 18q28 12 44 32q58 74 -26 242q-84 188 -180 188q-28 0 -58 -16q-64 -34 -64 -122zM664 754q206 -224 414 -414q6 282 8 588q-28 -8 -50 -26q24 -260 2 -460q-182 136 -322 334q-28 -2 -52 -22zM1108 834q0 124 110 168q42 18 80 18 q114 0 168 -170q-98 -44 -298 -134q86 -242 282 -184q114 32 64 142q-24 50 -72 32q-20 -10 -28 -38q-6 6 -22 20q0 40 40 54q82 28 110 -56q16 -42 16 -78q0 -86 -98 -118q-46 -14 -86 -14q-148 0 -230 192q-36 96 -36 166zM1150 822q0 -32 10 -70q66 28 262 118 q-52 92 -126 92q-24 0 -50 -10q-96 -38 -96 -130zM1590 616q16 20 30 20h6q46 -34 44 -90q0 -20 -6 -44q-10 -10 -20 -10q-2 0 -4 2q2 98 -50 122z" />
<glyph unicode="&#xa4;" horiz-adv-x="1926" d="M10 706q18 20 70 30q128 -124 230 -190q16 132 4 302q40 30 66 30h2q-6 -114 -18 -344q78 -56 312 -220q-20 -30 -66 -36q-146 138 -270 212q-20 -136 -2 -340q-36 -24 -64 -26q4 124 10 374q-68 52 -274 208zM472 802q0 152 140 196q32 10 62 10q158 0 274 -268 q112 -242 -48 -348q-28 -20 -66 -34q-40 -16 -76 -16q-148 0 -240 252q-46 122 -46 208zM522 816q0 -82 52 -204q80 -222 198 -222q28 0 56 10q26 12 46 26q126 86 30 298q-112 244 -240 244q-22 0 -42 -8q-100 -30 -100 -144zM912 356q16 20 70 30q128 -124 230 -192 q16 134 4 304q38 30 66 30q-4 -116 -16 -346q78 -54 312 -220q-22 -30 -66 -36q-146 138 -272 214q-18 -136 0 -340q-36 -24 -64 -28q4 126 10 376q-68 52 -274 208zM1374 452q0 150 140 196q32 10 62 10q158 0 274 -268q46 -100 46 -176q0 -142 -160 -206q-40 -16 -78 -16 q-146 -2 -238 250q-46 124 -46 210zM1424 466q0 -82 52 -204q80 -224 198 -224q26 0 56 12q118 48 118 164q0 68 -42 160q-114 244 -240 242q-22 0 -42 -6q-100 -32 -100 -144z" />
<glyph unicode="&#xa5;" horiz-adv-x="984" d="M28 1470q32 12 66 12q22 0 44 -4q112 -340 348 -686q228 340 334 682q72 12 114 -4q-162 -398 -406 -778q2 -234 8 -700q-44 -14 -76 -14q-26 0 -44 10q30 356 30 708q-250 378 -418 774zM168 640q0 24 18 50q346 10 626 10q8 -18 8 -36t-6 -34q-290 8 -644 2q-2 4 -2 8z M170 512q0 18 6 34q290 -8 644 -2q2 -4 2 -10q0 -22 -18 -50q-346 -8 -626 -8q-8 18 -8 36z" />
<glyph unicode="&#xa6;" horiz-adv-x="112" d="M16 148q8 180 8 404q8 2 18 2q20 0 42 -14q8 -214 4 -396q-10 -2 -24 -2q-24 0 -48 6zM18 1158v94h24q24 0 50 -6q-8 -180 -8 -402q-10 -4 -18 -4q-22 0 -42 14q-6 162 -6 304z" />
<glyph unicode="&#xa7;" horiz-adv-x="698" d="M40 806q0 146 72 214q78 72 168 80q24 -20 74 -60q-112 -14 -186 -66q-76 -50 -52 -202q22 -98 72 -156q50 -60 112 -98q74 -48 152 -84t128 -96q26 -32 42 -76q16 -42 16 -100v-2q-6 -112 -80 -182q-74 -68 -178 -82q-26 -4 -50 -4q-74 0 -146 32q-98 42 -120 180 q-10 78 38 130q46 52 116 54q58 4 98 -38q38 -42 38 -84q4 -26 -12 -56q-14 -30 -56 -50q-14 2 -22 16t-8 28q58 8 46 74t-94 64q-36 0 -72 -36q-34 -34 -10 -130q22 -68 96 -110q74 -40 162 -16q92 22 122 94t24 138q-6 74 -46 118q-40 42 -96 76q-36 20 -76 42 q-40 20 -78 44q-72 44 -128 116q-54 70 -64 202q-2 14 -2 26zM62 1296v2q4 114 78 182q74 70 180 84q24 4 50 4q74 0 146 -32q96 -44 120 -182q8 -76 -38 -128q-48 -52 -118 -56q-58 -2 -96 38q-40 42 -40 86q-2 24 12 56q16 30 56 48q14 -2 22 -16t10 -26q-60 -10 -48 -74 q12 -66 94 -64q38 0 72 34q34 36 12 130q-22 70 -96 110q-74 42 -164 18q-90 -22 -120 -94q-30 -74 -24 -138q6 -74 46 -118t94 -76q36 -22 76 -42t78 -44q72 -44 128 -116t66 -204v-26q0 -146 -70 -212q-78 -72 -170 -80q-24 20 -74 58q114 16 188 66q74 52 50 204 q-14 62 -40 108t-62 82q-64 64 -144 100q-82 38 -148 82q-54 38 -90 92t-36 144z" />
<glyph unicode="&#xa8;" horiz-adv-x="410" d="M36 1296v36q0 26 2 50q34 10 64 10q20 0 38 -4q-6 -44 -4 -96l-20 -4h-20q-30 0 -60 8zM270 1296v36q0 28 2 56h102v-24q0 -32 -4 -66q-24 -8 -50 -8q-24 0 -50 6z" />
<glyph unicode="&#xa9;" horiz-adv-x="1076" d="M54 842q0 22 2 46q20 578 470 578q24 0 48 -2q434 -28 452 -620v-28q0 -494 -512 -494h-6q-454 0 -454 520zM152 862q0 -478 372 -478h2q418 0 416 440v32q-18 534 -378 554h-32q-368 0 -380 -522v-26zM266 906q0 -386 264 -386q24 0 50 4q210 22 212 178q-10 30 -32 40 q-8 -166 -208 -170q-218 -6 -214 334q10 298 230 330q118 16 144 -88q14 -72 -40 -92q-34 -10 -40 32q-16 -6 -26 -24q20 -52 74 -36q82 20 68 126q-32 126 -160 126h-22q-296 -28 -300 -374z" />
<glyph unicode="&#xab;" horiz-adv-x="1012" d="M4 830q386 -190 596 -440q4 38 4 76v36q-192 248 -468 332q276 98 462 324q6 52 0 102q-274 -286 -594 -430zM372 822q386 -192 596 -440q4 38 4 76v36q-192 248 -468 332q276 98 460 324q8 52 0 102q-274 -286 -592 -430z" />
<glyph unicode="&#xad;" horiz-adv-x="490" d="M34 696q2 22 14 42q162 6 304 6h94v-24q0 -24 -6 -50q-180 8 -402 8q-4 10 -4 18z" />
<glyph unicode="&#xae;" horiz-adv-x="868" d="M38 930q0 32 2 66q30 480 424 480q30 0 62 -4q290 -34 290 -516v-20q6 -418 -350 -418h-26q-402 12 -402 412zM122 934q-2 -358 336 -366h18q274 -2 274 376v4q-4 452 -232 478q-22 2 -46 2q-334 0 -348 -434q-2 -32 -2 -60zM260 1288q54 -334 30 -600h18h10q12 0 24 4 q-12 208 -8 306q164 62 152 -80q-12 -228 98 -218q82 2 90 108v16q0 86 -66 86q-36 -2 -36 -30q4 -6 10 -18q12 18 24 20q44 4 42 -74q-2 -74 -62 -84q-64 2 -52 202q6 134 -92 122q120 62 108 160q-22 122 -132 122q-64 0 -158 -42zM300 1264q64 26 108 26q78 0 100 -80 q2 -10 2 -20q-2 -100 -182 -142q-6 68 -12 116z" />
<glyph unicode="&#xaf;" horiz-adv-x="458" d="M16 738q0 20 14 40q160 6 304 6h92q2 -12 2 -24q0 -24 -6 -50q-180 8 -404 8q-2 10 -2 20z" />
<glyph unicode="&#xb0;" horiz-adv-x="324" d="M24 1304q0 42 30 92q40 72 98 72q40 0 88 -34q58 -42 58 -98q0 -50 -52 -112q-46 -46 -96 -46q-36 0 -74 26q-52 44 -52 100zM70 1310q0 -36 34 -66q26 -18 50 -18q32 0 64 30q36 42 36 76q-2 36 -40 64q-32 24 -58 24q-38 0 -66 -48q-20 -34 -20 -62z" />
<glyph unicode="&#xb4;" horiz-adv-x="326" d="M30 1444v2q116 74 210 176q46 -14 56 -68q-88 -96 -234 -148l-8 -4q-24 18 -24 42z" />
<glyph unicode="&#xb5;" horiz-adv-x="848" d="M22 762q0 190 22 428q16 8 38 8q28 0 66 -14q-152 -1148 248 -1124q412 6 304 1126q46 18 108 -4q12 -166 12 -310q0 -864 -436 -880h-4q-358 0 -358 770zM26 698v28q38 -16 76 -30q-4 -84 6 -188t24 -214q24 -170 50 -328q4 -34 10 -66q32 -188 22 -262q-24 -16 -50 -24 q-24 -6 -48 -8q8 54 4 140t-16 190q-20 190 -52 410q-26 200 -26 352z" />
<glyph unicode="&#xb6;" horiz-adv-x="1024" d="M48 1110q0 56 14 114q30 114 128 168q174 78 386 114q214 36 384 52q-4 -34 -30 -66q-66 -10 -124 -16q18 -702 28 -1442q-54 -34 -106 -42q20 748 -12 1472l-156 -30q24 -732 26 -1478q-50 -38 -110 -42q32 746 10 946q-158 -94 -274 -32t-150 178q-14 52 -14 104z" />
<glyph unicode="&#xbb;" horiz-adv-x="1028" d="M42 334q0 -36 4 -74q210 248 596 440q-318 142 -592 430q-8 -52 0 -102q184 -226 462 -326q-278 -82 -470 -332v-36zM410 342q0 -36 4 -74q210 248 596 440q-320 142 -594 430q-6 -52 0 -102q186 -226 462 -326q-276 -82 -468 -330v-38z" />
<glyph unicode="&#xbc;" horiz-adv-x="836" d="M18 42q408 722 718 1406q54 -4 82 -34q-346 -672 -722 -1400q-44 10 -78 28zM60 1350q54 38 70 54q18 14 46 42q12 4 22 4q8 0 16 -2q-4 -234 -10 -698q50 2 88 6q4 -28 -2 -50q-72 -2 -218 -6q0 22 2 48q28 -2 86 -6q16 322 6 642q-30 -26 -88 -76q-10 14 -18 42z M398 270q152 -2 258 2q2 -122 -2 -250q12 -2 24 -2q14 0 26 4q-2 116 -4 252q30 0 90 -4q8 18 10 46q-64 0 -98 -2q2 150 6 454q-12 10 -26 10q-6 0 -12 -2q-126 -212 -272 -508zM474 308q106 208 196 386l-12 -384q-46 0 -184 -2z" />
<glyph unicode="&#xbd;" horiz-adv-x="842" d="M12 42q408 722 718 1406q52 -4 82 -34q-348 -672 -722 -1400q-44 10 -78 28zM60 1350q52 38 70 54q16 14 46 42q10 4 22 4q6 0 16 -2q-4 -234 -12 -698q50 2 90 6q2 -28 -2 -50q-74 -2 -218 -6q0 22 2 48l84 -6q16 322 8 642q-30 -26 -90 -76q-10 14 -16 42zM484 52 q0 88 58 164q66 88 132 182q34 50 58 104q26 54 28 114q0 46 -38 76q-40 28 -76 26q-90 -6 -104 -78q-18 -102 68 -98q32 14 10 62q18 8 34 -2q14 -82 -48 -90q-112 -4 -106 116q12 124 140 130h10q56 0 98 -36q46 -40 48 -100v-14q0 -52 -16 -96q-18 -50 -48 -94 q-52 -84 -118 -162q-64 -78 -74 -180q76 0 228 2q18 -26 4 -56q-140 6 -286 0q-2 14 -2 30z" />
<glyph unicode="&#xbe;" horiz-adv-x="844" d="M24 46q410 720 720 1406q52 -4 80 -34q-346 -674 -720 -1400q-44 8 -80 28zM36 842v6q0 42 12 58q18 6 34 6q-8 -18 -8 -58q2 -38 24 -68q12 -16 32 -26t48 -10q56 2 88 38q34 36 44 102q14 88 -32 144t-148 66v26q80 28 126 70q44 40 46 86q2 64 -22 98q-24 36 -68 42 q-52 4 -92 -22q-38 -26 -44 -70q-2 -42 18 -70q20 -26 66 -22q24 6 34 26q8 22 -10 50q14 8 30 6q16 -42 -2 -72q-16 -30 -46 -36q-56 -10 -94 22q-36 32 -34 88q4 58 48 94q42 38 110 38q80 -2 120 -46q38 -46 34 -118q-10 -140 -172 -172q106 -14 152 -80q48 -64 42 -146 q-10 -88 -56 -132q-18 -16 -44 -26q-40 -18 -100 -18h-2q-36 0 -60 12q-26 12 -42 32q-30 36 -32 82zM402 284q152 -2 258 2q2 -122 -2 -250q12 -2 24 -2q14 0 26 4q-2 118 -4 252q30 0 90 -4q8 18 10 48q-64 -2 -98 -4q2 150 6 454q-12 10 -24 10q-8 0 -14 -2 q-126 -212 -272 -508zM478 324q106 206 196 384l-12 -384h-184z" />
<glyph unicode="&#xbf;" horiz-adv-x="818" d="M36 254q0 -284 386 -304q348 18 366 338q-2 210 -216 238q-230 8 -266 -144q-24 -224 160 -200q24 18 24 38q-124 -8 -114 130q12 124 198 122q130 -20 116 -190q-30 -274 -266 -278q-338 24 -262 376q18 70 82 138q62 68 148 152q96 94 126 202t24 274q-16 2 -36 2 q-30 0 -70 -6q6 -158 -8 -252q-14 -92 -72 -154q-98 -106 -192 -188q-92 -82 -112 -172q-16 -66 -16 -122zM400 1394v6q8 70 94 74q64 -4 72 -82v-10q0 -80 -64 -82h-14q-88 0 -88 94z" />
<glyph unicode="&#xc0;" d="M28 202q0 26 4 56q26 106 92 128q56 26 76 -46q-26 -2 -44 -10q-20 -10 -34 -24q-40 -38 -42 -100q0 -62 36 -102q16 -18 38 -30q24 -10 52 -12q112 -4 172 140q62 144 122 442q34 162 72 368q40 208 92 464q18 4 36 4q34 0 68 -16q112 -488 336 -1460q-50 -20 -120 -4 q-90 656 -270 1276q-52 -256 -102 -474q-48 -218 -100 -460q-38 -152 -106 -260q-58 -92 -160 -92q-18 0 -36 2q-182 28 -182 210zM562 730q8 16 28 64q68 6 272 20q4 -22 18 -84h-318zM602 1686v10q0 40 42 66q124 -44 232 -164q-8 -32 -32 -40q-112 80 -242 128z" />
<glyph unicode="&#xc1;" d="M24 202q0 26 4 56q26 106 94 128q54 26 74 -46q-24 -2 -44 -10q-20 -10 -34 -24q-40 -38 -42 -100q0 -62 36 -102q16 -18 40 -30q22 -10 52 -12q110 -4 170 140q62 144 124 442q32 162 70 368q40 208 92 464q18 4 38 4q32 0 68 -16q112 -488 334 -1460q-50 -20 -120 -4 q-90 656 -270 1276q-52 -256 -100 -474q-50 -218 -102 -460q-38 -152 -106 -260q-56 -92 -160 -92q-16 0 -34 2q-184 28 -184 210zM560 730q6 16 26 64q68 6 272 20q6 -22 20 -84h-318zM586 1594v2q118 72 212 174q44 -12 54 -66q-88 -98 -240 -152q-24 18 -26 42z" />
<glyph unicode="&#xc2;" d="M28 202q0 26 4 56q28 108 94 130q56 26 74 -48q-30 -2 -52 -14t-36 -30q-34 -44 -30 -106q6 -62 48 -98q14 -12 34 -20t44 -8q110 -4 172 138q60 144 122 444q34 160 72 368q38 206 90 462q20 6 38 6q34 0 68 -18q112 -486 336 -1460q-50 -18 -122 -4q-88 656 -268 1276 q-52 -254 -102 -474q-48 -218 -100 -458q-40 -152 -106 -260q-58 -94 -160 -94q-18 0 -36 2q-184 28 -184 210zM494 1470q118 110 208 306q96 -188 212 -302q-34 -6 -64 0q-108 80 -146 218q-30 -138 -150 -220q-16 -4 -30 -4t-30 2zM564 730q8 16 28 66q68 4 272 18 q4 -20 18 -84h-318z" />
<glyph unicode="&#xc3;" d="M44 202q0 26 4 56q28 106 94 128q56 26 74 -46q-24 -2 -44 -10q-18 -10 -34 -24q-40 -38 -40 -100q-2 -62 36 -102q16 -18 38 -30q22 -10 52 -12q110 -4 172 140q60 144 122 442q34 162 72 368q38 208 90 464q20 4 38 4q34 0 68 -16q112 -488 336 -1460q-50 -20 -122 -4 q-88 656 -268 1276q-52 -256 -102 -474q-48 -218 -100 -460q-40 -152 -106 -260q-58 -92 -160 -92q-18 0 -36 2q-184 28 -184 210zM472 1616v4q0 44 24 80q14 20 36 34q20 14 52 18q14 2 24 2q58 0 84 -34q30 -42 62 -82q16 -20 40 -34q22 -16 56 -14q64 2 86 44 q20 44 -22 102q12 4 24 6q10 2 24 2q20 -52 20 -94q0 -30 -12 -52q-26 -56 -108 -68q-18 -2 -32 -2q-56 0 -80 36q-34 42 -64 82q-16 22 -36 34q-22 14 -52 12q-42 -6 -72 -44q-30 -40 12 -94q-14 -4 -24 -6h-22q-18 24 -20 68zM580 730q8 16 28 64q68 6 272 20 q4 -22 18 -84h-318z" />
<glyph unicode="&#xc4;" d="M34 202q0 26 4 56q28 106 94 128q54 26 74 -46q-24 -2 -44 -10q-18 -10 -34 -24q-40 -38 -40 -100q-2 -62 36 -102q14 -18 38 -30q22 -10 52 -12q110 -4 172 140q60 144 122 442q32 162 72 368q38 208 90 464q18 4 38 4q32 0 68 -16q112 -488 336 -1460q-52 -20 -122 -4 q-90 656 -268 1276q-54 -256 -102 -474t-100 -460q-40 -152 -106 -260q-58 -92 -162 -92q-16 0 -34 2q-184 28 -184 210zM554 1620q0 28 2 50q34 10 66 10q18 0 36 -4q-6 -44 -2 -96q-20 -4 -42 -4q-28 0 -58 8q-2 18 -2 36zM570 730q6 16 26 64q68 6 272 20q6 -22 20 -84 h-318zM788 1620q0 30 2 56h102v-24q0 -32 -2 -66q-24 -8 -50 -8t-50 6q-2 20 -2 36z" />
<glyph unicode="&#xc5;" d="M30 206q0 26 4 56q26 106 92 128q56 26 76 -46q-26 -2 -44 -10q-20 -10 -34 -24q-40 -38 -42 -100q0 -62 36 -102q16 -18 38 -30q24 -10 52 -12q112 -4 172 140q62 142 122 442q34 160 72 368q40 208 92 462q18 6 36 6q34 0 68 -16q112 -488 336 -1460q-50 -20 -120 -4 q-90 656 -270 1276q-52 -256 -102 -474q-48 -220 -100 -460q-38 -152 -106 -260q-58 -92 -160 -92q-18 0 -36 2q-182 28 -182 210zM566 734q6 16 26 64q68 6 272 20q4 -22 18 -84h-316zM602 1648q0 46 44 100q42 40 86 40q32 0 66 -22q44 -40 44 -88q0 -38 -26 -80 q-36 -64 -86 -64q-36 0 -78 30q-50 38 -50 84zM642 1654q0 -32 34 -56q26 -20 50 -22q34 0 58 44q18 28 18 54q0 32 -30 58q-22 14 -44 14q-28 2 -56 -26q-30 -36 -30 -66z" />
<glyph unicode="&#xc6;" horiz-adv-x="1408" d="M34 192q0 26 4 56q28 106 94 128q56 26 74 -46q-30 -2 -52 -14q-22 -14 -36 -32q-34 -42 -30 -104q6 -62 48 -98q14 -14 34 -22t44 -8q112 -4 172 140q60 142 122 442q34 160 72 368t90 462q22 8 44 8q30 0 60 -10q-6 -30 -42 -184q-52 -256 -106 -480 q-54 -226 -106 -466q-38 -152 -106 -260q-58 -92 -160 -92q-18 0 -36 2q-184 26 -184 210zM532 720q6 16 26 64q68 6 272 20q6 -22 20 -84h-318zM762 1462q204 6 358 6q120 0 208 -4q4 -28 6 -52v-16q0 -20 -4 -48q-270 10 -478 32q-2 -234 12 -566q116 2 350 10 q8 -18 4 -36t-14 -50l-336 6q-6 -360 18 -736q-34 0 -106 -2q26 686 -18 1456zM784 4q2 18 6 70q274 30 496 30h86q2 -26 2 -50t-2 -50h-588z" />
<glyph unicode="&#xc7;" horiz-adv-x="978" d="M12 746q6 666 582 722q24 2 46 2q236 0 292 -232q28 -194 -120 -234q-104 -30 -144 56q18 36 50 48q24 -64 80 -46q110 42 80 166q-46 192 -282 162q-456 -64 -460 -644q-24 -448 266 -628q64 -40 160 -48q290 -22 352 220q40 -36 40 -92v-10q-70 -188 -334 -190 q-608 14 -608 748zM340 -324q2 130 128 134q126 6 142 -90q10 -128 -90 -110q-12 10 -12 22q62 -8 60 72q-4 66 -102 62q-72 -2 -66 -94q10 -158 140 -158q190 22 152 224q-8 40 -40 68t-80 78q-30 32 -48 66q-16 34 -24 76q18 2 38 4h6q16 0 26 -8q2 -32 10 -56 q6 -26 24 -46q54 -62 96 -98q44 -38 52 -90q6 -34 6 -66q0 -182 -218 -194q-200 6 -200 202v2z" />
<glyph unicode="&#xc8;" horiz-adv-x="676" d="M28 1462q136 2 250 2q192 0 320 -4q4 -28 4 -50v-4q0 -20 -4 -58q-272 12 -480 32q0 -232 12 -566q118 4 350 12q8 -18 4 -36t-14 -50l-336 6q-6 -360 18 -736q-34 -2 -106 -4q26 688 -18 1456zM50 6q2 18 8 70q272 30 494 30h86q2 -26 2 -50q0 -26 -2 -50h-588z M198 1686v10q0 40 42 66q124 -44 232 -164q-8 -32 -32 -40q-110 80 -242 128z" />
<glyph unicode="&#xc9;" horiz-adv-x="664" d="M26 1466q136 2 248 2q192 0 320 -6q4 -26 4 -48v-4q0 -20 -4 -58q-270 12 -480 32q0 -232 12 -566q118 4 352 12q6 -18 2 -36t-14 -50l-336 6q-6 -360 20 -736q-36 -2 -106 -4q24 688 -18 1456zM46 10q2 16 8 70q274 30 496 30q44 0 86 -2q2 -24 2 -50q0 -24 -2 -48h-590 zM200 1576v2q116 72 210 176q46 -14 56 -68q-88 -98 -240 -152q-26 18 -26 42z" />
<glyph unicode="&#xca;" horiz-adv-x="696" d="M40 1456q136 2 250 2q192 0 320 -4q4 -28 4 -50v-4q0 -20 -4 -56q-272 10 -480 32q0 -234 12 -568q118 4 350 12q8 -18 4 -36t-14 -50l-336 6q-6 -360 20 -736q-36 -2 -106 -4q24 688 -20 1456zM62 0q2 18 8 70q272 30 494 30h88v-50v-50h-590zM130 1490q114 106 202 298 q92 -184 204 -294q-32 -6 -60 0q-106 76 -142 210q-30 -134 -146 -214q-14 -2 -30 -2q-14 0 -28 2z" />
<glyph unicode="&#xcb;" horiz-adv-x="664" d="M28 1460h250q192 0 320 -4q4 -28 4 -48v-6q0 -20 -4 -56q-272 10 -480 32q0 -234 12 -568q118 4 350 12q8 -18 4 -36t-14 -50l-336 6q-6 -360 18 -736q-34 0 -104 -4q24 688 -20 1458zM50 2q2 18 8 70q272 30 494 30h86q2 -26 2 -50t-2 -50h-588zM164 1566v36q0 28 2 50 q34 10 64 10q20 0 38 -4q-6 -44 -4 -96h-2q-18 -4 -38 -4q-30 0 -60 8zM398 1566v36q0 30 2 56h102q0 -44 -4 -90q-18 -6 -38 -8h-12q-24 0 -50 6z" />
<glyph unicode="&#xcc;" horiz-adv-x="402" d="M18 28q0 -16 6 -30h354v24v20q-4 16 -16 36h-62q-134 0 -272 -12q-10 -20 -10 -38zM40 1430q0 -12 2 -22q4 -14 22 -32q122 4 282 -8q4 24 12 38q6 16 6 38q-92 6 -190 6q-66 0 -134 -2v-18zM72 1684q2 40 42 66q124 -44 232 -164q-6 -32 -30 -40q-112 80 -242 128 q-2 6 -2 10zM138 0q26 2 108 4q-20 710 12 1416q-38 -2 -112 -8q22 -656 -8 -1412z" />
<glyph unicode="&#xcd;" horiz-adv-x="444" d="M44 34q0 -14 6 -30h352v8q2 24 0 38t-14 34q-32 2 -64 2q-132 0 -272 -14q-8 -18 -8 -38zM64 1438q0 -14 2 -22q4 -16 24 -34q120 4 280 -8q4 24 12 40q6 14 6 36q-92 8 -190 8q-66 0 -132 -4q-2 -8 -2 -16zM84 1566v4q118 72 212 174q44 -12 54 -68q-88 -96 -240 -150 q-24 16 -26 40zM162 8q28 0 108 4q-20 710 12 1416q-38 -4 -112 -8q24 -656 -8 -1412z" />
<glyph unicode="&#xce;" horiz-adv-x="450" d="M20 1484q112 106 200 296q92 -182 206 -292q-32 -6 -62 0q-106 76 -142 210q-28 -134 -146 -214q-14 -2 -28 -2t-28 2zM46 38q0 -16 6 -30h352q2 14 2 24q0 12 -2 20q-2 16 -14 36h-62q-134 2 -272 -12q-10 -20 -10 -38zM66 1442q0 -14 4 -24q4 -14 22 -32q120 4 282 -8 q4 24 10 38q6 16 8 38q-94 6 -192 6q-64 0 -132 -2q-2 -10 -2 -16zM164 10q28 2 110 4q-22 712 10 1416q-38 -2 -112 -6q24 -658 -8 -1414z" />
<glyph unicode="&#xcf;" horiz-adv-x="428" d="M36 28q0 -16 6 -30h354v24v20q-4 16 -16 36h-62q-134 0 -272 -12q-10 -20 -10 -38zM44 1574q0 28 4 52q32 8 64 8q18 0 36 -4q-6 -42 -2 -94q-12 -4 -26 -4q-8 -2 -16 -2q-28 0 -58 8q-2 20 -2 36zM58 1430q0 -12 2 -22q4 -14 22 -32q120 4 282 -8q4 24 10 38q8 16 8 38 q-94 6 -192 6q-64 0 -132 -2v-18zM154 0q28 2 110 4q-20 710 10 1416q-36 -2 -112 -8q24 -656 -8 -1412zM278 1576q0 28 4 54h100q2 -12 2 -24q0 -32 -4 -66q-24 -8 -50 -8q-24 0 -50 6q-2 20 -2 38z" />
<glyph unicode="&#xd1;" horiz-adv-x="852" d="M54 1468q48 10 100 -2q250 -646 556 -1168q-8 484 -20 1174q30 10 62 10q30 0 62 -10q-38 -768 -20 -1466q-24 -4 -46 0q-184 376 -314 618t-282 524q8 -378 24 -1136q-34 -14 -72 -14q-22 0 -46 6q34 870 -4 1464zM176 1622v2q0 44 24 80q14 20 34 34q22 16 54 18 q12 2 24 2q58 0 84 -34q30 -42 62 -82q16 -20 38 -34q24 -16 58 -14q64 2 84 44q22 44 -20 102q12 4 24 6q10 2 24 2q20 -52 20 -92q0 -32 -12 -54q-26 -56 -108 -68q-18 -2 -32 -2q-56 0 -82 36q-32 42 -62 82q-16 22 -36 34q-22 14 -54 12q-40 -6 -70 -44q-30 -40 12 -94 q-14 -4 -24 -6h-22q-18 24 -20 70z" />
<glyph unicode="&#xd2;" d="M90 856q0 604 528 604h14q436 -6 436 -640q0 -42 -2 -88q-24 -726 -468 -726q-26 0 -52 2q-442 40 -454 788q-2 30 -2 60zM210 794q26 -674 368 -706q18 -2 34 -2q348 0 352 660q2 42 2 82q0 546 -334 550h-10q-412 0 -412 -536v-48zM470 1686q2 40 42 68 q124 -46 232 -166q-6 -30 -30 -40q-112 80 -242 128q-2 6 -2 10z" />
<glyph unicode="&#xd3;" d="M94 848q0 604 528 606q6 0 14 -2q436 -4 436 -638q0 -44 -2 -88q-24 -726 -468 -728q-26 0 -54 4q-442 38 -452 786q-2 32 -2 60zM214 788q26 -676 366 -706q20 -2 36 -2q348 0 352 658q0 44 2 84q0 546 -334 550h-10q-412 -2 -412 -538v-46zM496 1562v2q116 72 210 176 q46 -14 56 -68q-90 -98 -240 -152q-26 18 -26 42z" />
<glyph unicode="&#xd4;" horiz-adv-x="1024" d="M26 854q0 604 528 604h14q436 -6 436 -640q0 -42 -2 -88q-24 -726 -468 -726q-26 0 -52 2q-442 40 -454 788q-2 30 -2 60zM146 792q26 -674 368 -706h34q348 0 352 658q2 42 2 84q0 544 -334 548h-10q-412 0 -412 -536v-48zM336 1480q114 108 202 298q92 -184 204 -294 q-30 -6 -60 0q-106 76 -142 210q-28 -134 -146 -212q-14 -4 -28 -4t-30 2z" />
<glyph unicode="&#xd5;" d="M98 788v60q-2 604 528 606q6 0 14 -2q434 -4 434 -638v-88q-24 -726 -468 -728q-26 0 -54 4q-442 38 -454 786zM216 834q0 -22 2 -46q24 -676 366 -706q18 -2 36 -2q348 0 350 658q2 44 2 84q0 546 -334 550h-10q-410 -2 -412 -538zM346 1588v2q0 46 24 82q12 20 34 34 t52 18q14 2 26 2q56 0 82 -34q32 -42 64 -82q16 -20 38 -34q22 -16 58 -14q64 2 84 44q20 44 -22 100q14 6 24 8q12 2 26 2q20 -52 20 -94q0 -30 -12 -54q-28 -54 -110 -66q-16 -2 -32 -2q-54 0 -80 34q-32 44 -62 84q-16 22 -38 34q-20 14 -52 10q-40 -4 -72 -42 q-30 -40 12 -94q-12 -4 -22 -6h-24q-18 24 -18 68z" />
<glyph unicode="&#xd6;" d="M86 848q0 604 530 606q6 0 12 -2q436 -4 436 -638q0 -44 -2 -88q-24 -726 -466 -728q-26 0 -54 4q-442 38 -454 786q-2 32 -2 60zM206 834q0 -22 2 -46q24 -676 366 -706q18 -2 36 -2q346 0 350 658q2 44 2 84q0 546 -334 550h-10q-412 -2 -412 -538zM426 1602q0 28 4 52 q32 10 64 8q18 0 36 -2q-6 -44 -2 -96q-16 -4 -32 -4h-10q-28 0 -58 8q-2 18 -2 34zM660 1604q0 28 4 54q50 0 100 2v-24q2 -34 -2 -68q-24 -8 -50 -8q-24 0 -50 8q-2 18 -2 36z" />
<glyph unicode="&#xd7;" horiz-adv-x="902" d="M32 292q196 162 364 342q-166 180 -352 340q30 60 80 80q148 -198 322 -370q178 174 350 382q44 -28 68 -82q-184 -170 -362 -348q162 -170 346 -334q-30 -54 -78 -72q-154 186 -322 354q-156 -158 -340 -366q-58 14 -76 74z" />
<glyph unicode="&#xd8;" d="M36 858q0 588 554 588h14q502 -6 502 -634q0 -38 -2 -78q-26 -718 -528 -720q-30 0 -62 4q-464 40 -476 782q-2 30 -2 58zM86 40q482 716 880 1418q54 -10 98 -48q-432 -690 -894 -1390q-10 -4 -22 -4q-28 0 -62 24zM154 798q26 -680 392 -710q22 -2 42 -2q406 0 410 662 q2 38 2 72q0 548 -398 552h-10q-438 0 -438 -532v-42z" />
<glyph unicode="&#xd9;" horiz-adv-x="932" d="M46 968q0 226 26 506q68 8 134 4q-144 -1368 270 -1402t260 1398q30 6 60 6q44 0 82 -16q20 -266 20 -484q0 -986 -400 -986h-12q-440 16 -440 974zM348 1686q2 40 42 66q124 -44 232 -164q-6 -32 -30 -40q-112 80 -242 128q-2 6 -2 10z" />
<glyph unicode="&#xda;" horiz-adv-x="922" d="M30 970q0 228 24 508q70 8 134 4q-142 -1368 272 -1402q412 -34 258 1398q32 6 60 6q44 0 82 -16q20 -266 20 -484q0 -986 -400 -986h-12q-438 16 -438 972zM332 1602v2q118 72 212 174q44 -12 54 -66q-88 -98 -240 -152q-24 18 -26 42z" />
<glyph unicode="&#xdb;" horiz-adv-x="902" d="M22 966q0 228 26 508q68 8 132 4q-142 -1368 272 -1402t260 1398q30 6 60 6q44 0 82 -16q20 -266 20 -484q0 -986 -400 -986h-12q-440 16 -440 972zM250 1484q112 106 200 296q92 -184 206 -294q-32 -4 -62 0q-106 78 -142 212q-28 -134 -146 -214q-14 -4 -28 -4t-28 4z " />
<glyph unicode="&#xdc;" horiz-adv-x="912" d="M30 960q0 226 24 506q70 10 134 4q-142 -1366 272 -1400q412 -36 258 1396q32 8 60 8q44 0 82 -16q20 -266 20 -484q0 -988 -400 -988q-6 0 -12 2q-438 16 -438 972zM282 1600q0 28 4 52q32 8 64 8q18 0 36 -4q-4 -42 -2 -96q-12 -2 -26 -2q-6 -2 -14 -2q-30 0 -60 8 q-2 20 -2 36zM516 1602q0 28 4 54h100q2 -12 2 -24q0 -32 -4 -66q-24 -8 -50 -8q-24 0 -50 6q-2 20 -2 38z" />
<glyph unicode="&#xdd;" horiz-adv-x="964" d="M28 1480q34 14 68 14q22 0 44 -6q110 -336 348 -682q228 340 334 678q70 12 114 -4q-158 -400 -404 -780q2 -232 8 -698q-46 -12 -80 -12q-28 0 -46 8q26 352 30 706q-250 378 -416 776zM368 1574v2q116 72 210 176q46 -14 56 -68q-90 -98 -242 -152q-24 18 -24 42z" />
<glyph unicode="&#xdf;" horiz-adv-x="902" d="M40 834q0 646 360 654q148 -2 238 -66t108 -208q10 -156 -52 -230q-64 -74 -128 -116q-34 -20 -60 -38t-32 -40q-4 -10 10 -20q12 -10 34 -24q42 -22 108 -56t124 -94q50 -50 84 -120q34 -72 34 -172q-4 -140 -62 -206q-60 -68 -134 -90q-38 -12 -78 -16q-40 -2 -72 2 q-222 22 -240 220q-4 92 30 146q34 56 116 60q14 -16 20 -36t4 -34q-52 16 -80 -22t-22 -98q24 -160 180 -152q252 12 218 270q-8 92 -42 154t-78 104q-30 28 -62 50q-32 20 -62 36q-54 32 -92 54q-36 22 -30 52q6 18 32 36q24 16 58 40q62 42 124 114q62 74 50 212 q-30 212 -224 208q-484 -18 -188 -1458q-10 -2 -22 -2q-32 -2 -70 20q-102 524 -102 866z" />
<glyph unicode="&#xe0;" horiz-adv-x="898" d="M34 390q2 100 34 218q28 98 98 154q68 56 156 72q120 20 208 -4q86 -22 138 -88q4 46 0 152t-68 178q-36 38 -96 56q-58 18 -150 -2q-94 -30 -140 -88q-44 -60 -34 -148q-26 -40 -72 -56q-20 70 -10 126q10 58 40 100q56 82 162 114q72 24 142 24q32 0 64 -6 q120 -18 204 -106t52 -310q-82 -416 -78 -580q6 -164 82 -126q38 24 48 62t0 84q12 2 30 -10q20 -10 28 -18q-2 -58 -22 -98q-18 -40 -46 -62q-52 -40 -114 -22t-78 84q-18 -38 -86 -70q-66 -30 -148 -34h-12q-36 0 -74 8q-44 10 -82 34q-124 92 -160 238q-16 58 -16 124z M134 414q0 -46 8 -86q14 -80 48 -136q62 -104 178 -118h22q104 0 214 98q4 166 18 274t30 222q-40 44 -92 68t-108 28h-16q-94 0 -180 -60q-92 -64 -116 -200q-6 -46 -6 -90zM348 1394v10q0 40 42 66q124 -46 232 -164q-8 -32 -32 -42q-110 82 -242 130z" />
<glyph unicode="&#xe1;" horiz-adv-x="888" d="M20 390q2 100 34 220q28 96 98 152q68 56 156 72q120 20 208 -2q86 -24 138 -88q4 44 0 152q-4 106 -68 176q-36 40 -96 56q-58 18 -150 0q-94 -30 -140 -90q-44 -60 -34 -146q-26 -42 -72 -58q-36 130 22 214t154 122q52 20 110 26q24 2 48 2q32 0 64 -4 q120 -20 204 -108t52 -310q-82 -416 -78 -580q6 -162 82 -126q38 24 48 62q10 40 0 84q12 2 30 -8q20 -12 28 -20q-2 -58 -22 -98q-18 -38 -46 -60q-52 -40 -114 -22t-78 82q-10 -20 -36 -40q-24 -18 -60 -34q-64 -26 -150 -28h-8q-80 -2 -148 40q-124 94 -160 238 q-16 58 -16 124zM120 416q0 -46 8 -88q14 -80 48 -136q62 -104 178 -116q12 -2 22 -2q104 0 214 100q4 164 18 272t30 222q-40 44 -92 68t-108 28h-16q-94 0 -180 -58q-92 -66 -116 -200q-6 -48 -6 -90zM308 1294v2q116 74 210 176q46 -14 56 -68q-90 -98 -240 -152 q-26 18 -26 42z" />
<glyph unicode="&#xe2;" horiz-adv-x="902" d="M48 388q0 100 34 218q26 98 96 154t156 72q122 20 208 -4q86 -22 138 -88q4 46 2 152q-4 108 -70 178q-36 38 -94 56q-60 18 -150 -2q-96 -30 -140 -88q-46 -60 -34 -148q-28 -40 -74 -56q-18 70 -8 126q10 58 40 100q56 82 160 114q72 24 142 24q32 0 64 -6 q120 -18 204 -106t52 -310q-82 -416 -76 -580q4 -164 82 -126q36 24 46 62t0 84q12 2 30 -10q20 -10 28 -18q-2 -58 -20 -98q-20 -40 -48 -60q-52 -40 -112 -24q-62 18 -80 84q-18 -38 -86 -70q-66 -30 -146 -34h-14q-36 0 -74 8q-42 10 -80 34q-124 92 -162 238 q-14 58 -14 124zM146 412q0 -46 8 -86q14 -80 48 -136q64 -104 178 -118h24q104 0 212 98q4 166 18 274t30 222q-74 82 -184 94q-18 2 -34 2q-90 0 -164 -50q-48 -32 -82 -84t-48 -126q-6 -46 -6 -90zM262 1218q114 108 202 298q92 -184 204 -294q-32 -6 -60 0 q-106 76 -144 210q-28 -134 -146 -212q-14 -4 -28 -4t-28 2z" />
<glyph unicode="&#xe3;" d="M164 366q0 100 34 220q28 96 96 152q70 56 156 72q122 20 208 -4q86 -22 138 -88q6 46 2 152q-4 108 -70 178q-36 38 -94 56q-60 18 -150 -2q-96 -30 -140 -88q-46 -60 -34 -148q-28 -40 -74 -56q-18 70 -8 128q10 56 40 100q56 80 160 112q72 24 144 24q30 0 62 -6 q120 -18 204 -106t52 -310q-82 -416 -76 -580q4 -164 82 -126q36 24 46 62t2 84q10 2 30 -10q18 -10 26 -18q-2 -58 -20 -98q-20 -40 -48 -60q-50 -40 -112 -24q-62 18 -80 84q-10 -20 -34 -40q-26 -20 -60 -34q-66 -26 -150 -30h-10q-80 0 -146 42q-124 92 -162 238 q-14 58 -14 124zM262 390q0 -46 8 -86q14 -80 48 -136q64 -104 178 -118h24q104 0 212 100q4 164 18 272t30 222q-40 44 -92 68t-108 28h-16q-94 0 -180 -60q-92 -64 -116 -200q-6 -46 -6 -90zM330 1318v2q0 44 24 80q14 20 36 34q20 16 52 18q14 2 26 2q56 0 82 -34 q30 -42 62 -82q18 -20 40 -34t56 -14q64 2 86 46q20 42 -22 100q12 6 24 8t24 0q20 -52 20 -92q0 -32 -12 -54q-26 -56 -108 -68q-16 -2 -28 -2q-24 0 -42 8q-28 12 -48 32q-36 38 -62 84q-24 46 -84 40q-42 -4 -72 -44t12 -94q-12 -4 -24 -6h-22q-18 24 -20 70z" />
<glyph unicode="&#xe4;" horiz-adv-x="884" d="M34 390q2 100 34 218q28 98 98 154q68 56 156 72q120 20 208 -4q86 -22 138 -88q4 46 0 152t-68 178q-36 38 -96 56q-58 18 -150 -2q-94 -30 -140 -88q-44 -60 -34 -148q-26 -40 -72 -56q-20 70 -10 126q10 58 40 100q56 82 162 114q72 24 142 24q32 0 64 -6 q120 -18 204 -106t52 -310q-82 -416 -78 -580q6 -164 82 -126q38 24 48 62t0 84q12 2 30 -10q20 -10 28 -18q-2 -58 -22 -98q-18 -40 -46 -62q-52 -40 -114 -22t-78 84q-18 -38 -86 -70q-66 -30 -148 -34h-12q-36 0 -74 8q-44 10 -82 34q-124 92 -160 238q-16 58 -16 124z M134 414q0 -46 8 -86q14 -80 48 -136q62 -104 178 -118h22q104 0 214 98q4 166 18 274t30 222q-40 44 -92 68t-108 28h-16q-94 0 -180 -60q-92 -64 -116 -200q-6 -46 -6 -90zM290 1278v36q0 26 2 50q34 10 64 10q20 0 38 -4q-6 -44 -4 -96q-14 -2 -30 -4h-10q-30 0 -60 8z M524 1278v36q0 30 2 56h102v-24q0 -32 -4 -66q-24 -8 -50 -8q-24 0 -50 6z" />
<glyph unicode="&#xe5;" horiz-adv-x="870" d="M14 386q0 100 34 218q28 96 98 154q68 56 156 70q120 20 206 -2q88 -22 140 -88q4 46 0 152t-68 178q-36 38 -96 56q-58 16 -150 -2q-94 -30 -140 -90q-44 -60 -34 -146q-26 -40 -72 -56q-36 130 22 214t154 120q52 20 110 26q24 2 46 2q34 0 66 -4q120 -18 204 -106 t52 -310q-82 -418 -78 -580q6 -164 82 -126q38 24 48 62t0 82q12 4 30 -8t28 -18q-2 -60 -22 -98q-18 -40 -46 -62q-52 -40 -114 -22t-78 84q-10 -22 -36 -40q-24 -20 -60 -34q-64 -28 -150 -30h-8q-80 0 -148 40q-124 94 -160 240q-16 58 -16 124zM114 406q0 -118 46 -202 q64 -114 170 -132q16 -2 34 -2q42 0 88 16q66 22 130 82q6 166 20 274q14 106 30 222q-40 44 -92 68t-108 26q-8 2 -16 2q-96 0 -180 -60q-92 -64 -116 -200q-6 -50 -6 -94zM336 1328q0 44 46 100q42 40 84 40q32 -2 66 -24q44 -38 44 -88q0 -36 -26 -80q-36 -62 -86 -62 q-36 -2 -78 30q-50 36 -50 84zM376 1332q0 -32 34 -56q28 -20 50 -20q34 0 58 42q18 30 18 54q0 32 -30 58q-22 16 -44 16q-28 0 -56 -26q-30 -38 -30 -68z" />
<glyph unicode="&#xe6;" horiz-adv-x="1438" d="M30 446q0 70 14 148q18 98 88 162q72 64 158 84q120 26 206 8q88 -18 144 -80q2 46 -8 152q-8 106 -78 174q-38 36 -98 50t-150 -10q-92 -34 -134 -96t-26 -148q-26 -42 -70 -60q-42 128 12 214q52 88 146 130q50 22 108 32q36 4 70 4q20 0 42 -2q120 -10 210 -94 q72 -68 72 -228q0 -38 -4 -80q-12 -84 -20 -146q-6 -64 -10 -110q-2 -36 -4 -64v-50q2 -70 12 -116q12 -48 20 -138q-12 -38 -46 -70q-32 -32 -76 -56q-82 -42 -184 -52q-24 -4 -48 -4q-72 0 -126 26q-128 56 -184 212q-36 94 -36 208zM124 456q0 -70 18 -128 q24 -76 70 -128q84 -96 216 -100h6q128 0 238 108q-30 110 -46 182q-18 72 -22 140q-2 36 -2 76q2 38 8 86q-78 80 -184 84q-10 2 -18 2q-96 0 -170 -60q-44 -34 -74 -88t-38 -128q-2 -24 -2 -46zM624 574q0 32 2 64q58 562 416 562q18 0 36 -2q338 -24 338 -382 q0 -62 -12 -136q-228 8 -688 24q-62 -536 360 -610q246 -42 254 208q2 120 -104 130q-48 -4 -88 -48l-24 60q38 74 124 62q180 -22 158 -206q-34 -298 -272 -298q-32 0 -68 4q-432 64 -432 568zM734 778q152 -4 604 -18q-14 298 -254 318q-22 2 -42 2q-256 0 -308 -302z" />
<glyph unicode="&#xe7;" horiz-adv-x="800" d="M22 602v16q34 536 460 584q22 2 44 2q176 0 216 -170q24 -164 -96 -196q-82 -20 -104 52q8 26 24 34q28 -64 68 -48q82 40 56 154q-48 136 -192 114q-342 -58 -372 -520q-36 -526 330 -566q220 -10 276 220q40 -10 56 -34q-40 -234 -302 -250h-40q-426 0 -424 608z M246 -314q2 130 128 136q126 4 142 -92q8 -126 -90 -110q-14 12 -12 22q62 -8 60 72q-4 66 -102 62q-72 -2 -66 -94q8 -158 140 -158q188 22 152 224q-8 40 -40 68q-34 28 -80 78q-30 32 -48 68q-16 34 -24 74q18 2 38 4h6q16 0 26 -6q2 -32 10 -58q6 -26 24 -46 q52 -62 96 -98q42 -38 52 -88q6 -36 6 -68q0 -182 -218 -194q-200 6 -200 202v2z" />
<glyph unicode="&#xe8;" horiz-adv-x="846" d="M30 600q20 590 412 590h2q396 -2 362 -494l-690 -24q-24 -540 402 -584q250 -26 240 226q-6 120 -114 122q-46 -6 -84 -54q-10 18 -28 58q32 76 120 72q170 -10 170 -176v-20q-12 -318 -280 -318q-18 0 -38 2q-462 36 -474 600zM130 746q150 6 604 24q-38 274 -276 302 q-294 -18 -328 -326zM314 1394v10q0 40 42 66q124 -44 230 -164q-6 -32 -30 -40q-112 80 -242 128z" />
<glyph unicode="&#xe9;" horiz-adv-x="856" d="M24 600q12 -564 476 -600q18 -2 36 -2q268 0 280 318v20q0 166 -170 176q-88 4 -120 -72q10 -20 28 -58q38 48 84 54q108 -2 114 -122q10 -252 -240 -226q-426 44 -402 584q172 6 690 24q34 492 -362 494h-2q-392 0 -412 -590zM124 746q34 308 328 326q238 -28 276 -302 q-202 -8 -604 -24zM340 1296v2q116 74 212 176q44 -12 54 -68q-88 -96 -240 -150q-26 16 -26 40z" />
<glyph unicode="&#xea;" horiz-adv-x="860" d="M32 600q12 -564 476 -600q18 -2 36 -2q268 0 280 320q2 10 2 18q-2 168 -172 176q-88 4 -120 -72q10 -18 28 -58q38 48 86 56q106 -4 112 -124q10 -250 -238 -226q-428 44 -404 584q172 6 690 24q36 494 -362 496h-2q-392 0 -412 -592zM132 748q34 306 328 324 q238 -28 276 -300q-202 -8 -604 -24zM252 1202q114 106 202 298q92 -184 204 -294q-30 -6 -60 0q-106 76 -142 210q-30 -134 -146 -214q-14 -2 -28 -2q-16 0 -30 2z" />
<glyph unicode="&#xeb;" horiz-adv-x="844" d="M30 598q20 590 412 590h2q396 -2 362 -496l-690 -24q-24 -540 402 -582q250 -26 240 224q-6 120 -114 124q-46 -8 -84 -56q-10 20 -28 58q32 76 120 72q170 -8 170 -176v-18q-12 -320 -280 -320q-18 0 -38 2q-462 36 -474 602zM130 744q150 6 604 24q-38 272 -276 300 q-294 -16 -328 -324zM300 1290v36q0 26 2 50q34 10 64 10q20 0 38 -4q-6 -44 -2 -96q-18 -4 -34 -4h-8q-30 0 -60 8zM534 1290v36q0 28 2 56h102v-24q0 -32 -2 -68q-26 -6 -52 -6q-24 -2 -50 6z" />
<glyph unicode="&#xec;" horiz-adv-x="430" d="M60 1394v10q0 40 42 66q122 -44 230 -164q-6 -32 -30 -40q-112 80 -242 128zM128 1072q26 20 58 20q24 -2 50 -14q-12 -538 -4 -1070q-42 -12 -84 -12h-18q26 492 -2 1076z" />
<glyph unicode="&#xed;" horiz-adv-x="312" d="M32 1290v2q116 74 210 176q46 -14 56 -68q-90 -98 -240 -150q-26 16 -26 40zM104 -2q26 492 0 1076q26 20 56 20q24 -2 52 -14q-12 -538 -6 -1070q-40 -12 -84 -12h-18z" />
<glyph unicode="&#xee;" horiz-adv-x="454" d="M22 1170q114 108 202 298q92 -184 204 -294q-30 -6 -60 0q-106 76 -142 210q-28 -134 -146 -212q-14 -4 -28 -4t-30 2zM160 1070q26 18 56 18q26 0 52 -12q-12 -538 -4 -1070q-42 -12 -86 -12h-16q24 492 -2 1076z" />
<glyph unicode="&#xef;" horiz-adv-x="454" d="M54 1316q0 28 4 52q32 8 64 8q18 0 36 -4q-4 -42 -2 -96q-12 -2 -24 -2q-8 -2 -16 -2q-30 0 -60 8q-2 20 -2 36zM166 2q26 492 0 1076q26 20 56 18q24 0 52 -12q-12 -538 -6 -1070q-40 -12 -84 -12h-18zM288 1318q0 28 4 54h100q2 -12 2 -24q0 -32 -4 -66q-24 -8 -50 -8 q-24 0 -50 6q-2 20 -2 38z" />
<glyph unicode="&#xf0;" />
<glyph unicode="&#xf1;" horiz-adv-x="910" d="M18 1112q30 34 82 40q16 -30 28 -104q34 46 108 100q76 52 256 52q100 0 154 -46t76 -120q22 -80 18 -182q-6 -104 -20 -212q-10 -70 -20 -142q-10 -70 -16 -134q-12 -120 0 -210q14 -90 82 -116q28 -10 54 20q26 32 28 82q44 -14 48 -58q-2 -36 -42 -68 q-42 -30 -100 -22q-68 12 -102 56t-44 110q-10 56 -8 122q4 66 12 136q14 132 36 268q20 136 6 236q-8 72 -46 116q-36 44 -114 44q-160 0 -260 -66q-100 -68 -98 -254q4 -440 6 -764q-26 -6 -52 -6q-32 0 -62 10q38 952 -10 1112zM154 1336v4q0 44 24 80q12 20 34 34t54 18 q12 2 24 2q56 0 82 -34q32 -42 64 -82q16 -20 38 -34q22 -16 58 -14q64 2 84 44q20 44 -20 102q12 4 22 6q12 2 26 2q20 -52 20 -94q0 -30 -12 -52q-28 -56 -110 -68q-14 -2 -26 -2q-26 0 -44 8q-28 12 -48 32q-36 38 -60 84q-26 46 -86 38q-40 -4 -72 -42q-30 -40 12 -94 q-12 -4 -22 -6h-24q-18 24 -18 68z" />
<glyph unicode="&#xf2;" horiz-adv-x="846" d="M20 490q0 52 4 110q36 576 384 576q26 0 52 -4q350 -40 350 -622v-24q6 -524 -422 -524h-30q-338 14 -338 488zM122 484q0 -398 254 -408h22q330 0 330 454v4q-6 542 -280 574q-18 2 -36 2q-270 0 -286 -520q-4 -56 -4 -106zM288 1404q2 40 42 66q124 -44 232 -164 q-6 -32 -30 -40q-112 80 -242 128q-2 6 -2 10z" />
<glyph unicode="&#xf3;" horiz-adv-x="828" d="M14 494q0 52 4 108q36 578 384 576q26 0 52 -2q350 -42 350 -624v-22q6 -524 -422 -524h-30q-338 14 -338 488zM116 488q0 -400 254 -410h22q330 0 330 456v4q-6 540 -280 572q-18 2 -36 2q-270 0 -286 -518q-4 -56 -4 -106zM294 1292v2q118 72 212 174q44 -12 54 -66 q-88 -98 -240 -152q-24 18 -26 42z" />
<glyph unicode="&#xf4;" horiz-adv-x="846" d="M36 492q0 52 4 110q36 576 382 576q26 0 54 -4q350 -40 350 -622v-24q6 -524 -422 -524h-30q-338 14 -338 488zM136 486q0 -398 256 -408q12 -2 22 -2q328 2 328 456v4q-4 540 -278 574q-18 2 -36 2q-270 0 -288 -520q-4 -56 -4 -106zM242 1190q114 106 202 296 q92 -184 206 -294q-32 -4 -62 0q-106 78 -142 212q-28 -134 -146 -214q-14 -4 -28 -4t-30 4z" />
<glyph unicode="&#xf5;" horiz-adv-x="862" d="M42 496q0 52 4 110q34 576 382 576q26 0 54 -4q348 -40 348 -622v-24q8 -524 -420 -524h-30q-338 14 -338 488zM142 490q0 -398 256 -408h20q330 0 330 454v4q-6 542 -278 574q-18 2 -36 2q-272 0 -288 -520q-4 -56 -4 -106zM180 1326v2q0 46 24 82q12 20 34 34t54 18 q12 2 24 2q56 0 82 -34q32 -42 64 -82q16 -20 38 -36q22 -14 58 -12q64 2 84 44q20 44 -20 100q12 6 22 8q12 2 26 2q20 -52 20 -94q0 -30 -12 -54q-28 -54 -110 -66q-14 -2 -26 -2q-26 0 -44 8q-28 12 -48 32q-36 38 -60 84q-26 44 -86 38q-40 -4 -72 -42q-30 -40 12 -94 q-12 -4 -22 -6t-24 0q-18 22 -18 68z" />
<glyph unicode="&#xf6;" horiz-adv-x="836" d="M26 500q0 52 4 108q36 578 384 576q26 0 52 -2q350 -42 350 -624v-22q6 -524 -422 -524h-30q-338 14 -338 488zM128 494q0 -400 254 -410h22q330 0 330 456v4q-6 540 -280 572q-18 2 -36 2q-270 0 -288 -518q-4 -56 -2 -106zM254 1336q0 28 2 50q34 10 64 10q20 0 38 -4 q-6 -44 -2 -96l-28 -4h-14q-28 0 -58 8q-2 18 -2 36zM488 1300v36q0 30 2 56h102v-24q0 -32 -2 -66q-26 -8 -50 -8q-26 0 -52 6z" />
<glyph unicode="&#xf7;" horiz-adv-x="574" d="M20 616q2 36 14 64q246 -8 516 4q2 -8 2 -18q0 -26 -18 -54q-222 16 -514 4zM216 474q0 8 2 18q10 62 56 62q12 0 26 -6q50 -14 50 -56q0 -24 -16 -56q-16 -30 -44 -30q-14 0 -28 8q-46 18 -46 60zM216 812q0 10 2 20q10 62 56 60q12 0 26 -4q50 -14 50 -56 q0 -24 -16 -56q-16 -30 -44 -30q-14 0 -28 6q-46 20 -46 60z" />
<glyph unicode="&#xf8;" horiz-adv-x="942" d="M18 22q442 576 810 1142q46 -10 80 -44q-396 -554 -820 -1120q-6 0 -14 -2q-26 0 -56 24zM86 516q0 52 4 108q34 514 378 514q28 0 58 -4q386 -36 386 -556q0 -10 -2 -20q8 -530 -464 -530h-22q-338 14 -338 488zM186 510q2 -398 256 -410h26q364 0 364 454v4 q-6 482 -318 516q-20 2 -40 2q-266 0 -284 -460q-4 -56 -4 -106z" />
<glyph unicode="&#xf9;" horiz-adv-x="852" d="M34 868q0 144 12 310q60 22 108 4q-108 -1120 304 -1126q400 -24 248 1124q36 14 66 14q22 0 38 -8q22 -238 22 -428q0 -770 -358 -770h-4q-436 16 -436 880zM294 1392v10q0 40 42 66q124 -44 230 -164q-6 -32 -30 -40q-112 80 -242 128z" />
<glyph unicode="&#xfa;" horiz-adv-x="864" d="M36 874q0 144 12 310q62 22 108 4q-108 -1120 304 -1126q400 -24 248 1124q38 14 66 14q22 0 38 -8q24 -238 24 -430q0 -768 -360 -768h-4q-436 16 -436 880zM296 1292v2q118 72 212 174q44 -12 54 -66q-88 -98 -240 -152q-24 18 -26 42z" />
<glyph unicode="&#xfb;" horiz-adv-x="860" d="M34 868q0 144 12 310q62 22 108 4q-106 -1120 306 -1128q400 -22 246 1126q38 14 68 14q20 0 38 -8q22 -238 22 -430q0 -768 -360 -768h-2q-438 16 -438 880zM234 1190q114 106 200 296q94 -184 206 -294q-32 -4 -60 0q-106 78 -144 212q-28 -134 -146 -214 q-14 -4 -28 -4t-28 4z" />
<glyph unicode="&#xfc;" horiz-adv-x="846" d="M30 868q0 144 12 310q62 22 108 4q-108 -1120 304 -1126q400 -24 248 1124q38 14 66 14q22 0 38 -8q24 -238 24 -428q0 -770 -360 -770h-4q-436 16 -436 880zM274 1336q0 28 2 50q34 10 64 10q20 0 38 -4q-6 -44 -2 -96q-14 -2 -30 -4h-12q-28 0 -58 8q-2 18 -2 36z M508 1336q0 30 2 56h102v-24q0 -32 -2 -66q-26 -8 -50 -8q-26 0 -50 6q-2 20 -2 36z" />
<glyph unicode="&#xfd;" horiz-adv-x="876" d="M36 694q0 194 54 452q26 12 56 12q24 0 52 -8q-170 -900 228 -956q358 -50 288 956q52 20 110 -16q14 -270 14 -558q0 -314 -16 -652q-38 -514 -378 -514q-42 0 -90 8q-318 70 -276 428q50 208 222 226q200 0 212 -152q6 -148 -118 -168q-66 16 -68 60q6 42 10 42 q134 -50 110 60q-18 88 -132 90q-152 -18 -162 -182q2 -292 250 -320q284 2 334 422q16 108 10 422q-58 -240 -314 -228q-396 56 -396 576zM318 1292v2q116 72 210 174q46 -12 56 -66q-88 -98 -240 -152q-26 18 -26 42z" />
<glyph unicode="&#xfe;" horiz-adv-x="1416" d="M20 812q6 -106 68 -202q94 -148 276 -272t346 -222q88 -52 158 -96q70 -46 104 -80q30 62 68 138q40 78 82 162q80 158 148 334q70 176 76 338q2 14 2 28q0 118 -48 220q-52 116 -192 192q-52 28 -112 28q-46 0 -94 -18q-114 -40 -186 -146q-38 -58 -56 -132 q-20 -76 -10 -164q-50 138 -158 190q-106 50 -208 32q-56 -10 -104 -38t-80 -70q-80 -108 -80 -210v-12zM398 722q12 14 50 22q94 -92 168 -140q12 96 4 220q28 22 48 22q-4 -84 -12 -250q58 -42 228 -162q-16 -22 -50 -26q-106 100 -196 156q-14 -100 0 -248 q-28 -18 -48 -20q4 92 8 274zM734 792q0 110 104 142q22 8 44 8q116 0 200 -196q34 -72 34 -128q0 -104 -116 -150q-30 -12 -58 -12q-106 0 -174 182q-34 90 -34 154zM772 802q0 -60 36 -150q60 -162 146 -162q20 0 40 8q86 34 86 118q0 50 -30 118q-82 178 -174 178 q-16 0 -32 -6q-72 -22 -72 -104z" />
<glyph unicode="&#xff;" horiz-adv-x="880" d="M44 704q2 194 56 452q26 12 56 12q24 0 52 -10q-170 -898 228 -954q358 -50 288 954q50 20 110 -14q12 -270 12 -558q0 -316 -14 -652q-40 -514 -378 -514q-42 0 -90 8q-318 70 -278 426q52 210 224 228q200 0 212 -152q6 -148 -120 -168q-64 16 -66 60q4 42 10 42 q134 -50 110 60q-18 86 -132 88q-152 -18 -164 -180q4 -292 250 -320q286 0 336 422q16 108 10 422q-58 -240 -316 -230q-396 58 -396 578zM290 1316v36q0 28 2 50q34 10 64 10q20 0 38 -4q-6 -44 -4 -96l-24 -4h-16q-30 0 -60 8zM524 1316v36q0 30 2 56h102v-24 q0 -32 -4 -66q-24 -8 -50 -8q-24 0 -50 6z" />
<glyph unicode="&#x152;" horiz-adv-x="1888" d="M318 854q0 -28 2 -60q12 -748 454 -786q26 -4 52 -4q444 2 468 728q2 44 2 88q0 634 -436 638q-6 2 -14 2q-528 -2 -528 -606zM430 794v42q0 540 420 542h10q342 -6 342 -550q0 -40 -2 -84q-4 -658 -358 -658q-18 0 -36 2q-350 30 -376 706zM1198 1462q44 -768 18 -1456 q28 0 106 4q-24 376 -18 736q84 -2 336 -6q10 32 14 50t-4 36q-86 -4 -350 -12q-12 334 -12 566q208 -20 480 -32q4 38 4 58v4q0 22 -4 48q-128 6 -320 6q-114 0 -250 -2zM1220 6h588q2 24 2 50q0 24 -2 48q-42 2 -86 2q-222 0 -494 -30q-2 -18 -8 -70z" />
<glyph unicode="&#x153;" horiz-adv-x="1536" d="M22 484q0 52 4 108q34 578 382 578q26 0 54 -4q350 -42 350 -622v-24q6 -524 -422 -524h-30q-338 14 -338 488zM122 478q0 -398 256 -410h22q328 0 328 456v4q-4 540 -278 572q-18 2 -36 2q-270 0 -288 -518q-4 -56 -4 -106zM728 600q20 590 410 590h2q398 -2 362 -496 q-230 -8 -690 -22q-24 -542 404 -584q248 -26 238 224q-6 120 -112 124q-48 -8 -86 -56q-8 20 -26 58q32 78 118 72q172 -8 172 -174v-20q-14 -318 -280 -318h-38q-464 36 -474 602zM826 746q152 6 604 24q-36 296 -276 300h-10q-284 0 -318 -324z" />
<glyph unicode="&#x2000;" horiz-adv-x="894" />
<glyph unicode="&#x2001;" horiz-adv-x="1788" />
<glyph unicode="&#x2002;" horiz-adv-x="894" />
<glyph unicode="&#x2003;" horiz-adv-x="1788" />
<glyph unicode="&#x2004;" horiz-adv-x="596" />
<glyph unicode="&#x2005;" horiz-adv-x="447" />
<glyph unicode="&#x2006;" horiz-adv-x="298" />
<glyph unicode="&#x2007;" horiz-adv-x="298" />
<glyph unicode="&#x2008;" horiz-adv-x="223" />
<glyph unicode="&#x2009;" horiz-adv-x="357" />
<glyph unicode="&#x200a;" horiz-adv-x="99" />
<glyph unicode="&#x2010;" horiz-adv-x="428" d="M12 656q0 20 14 42q162 6 304 6q48 0 92 -2q2 -12 2 -24q0 -24 -6 -48q-180 8 -404 8q-2 8 -2 18z" />
<glyph unicode="&#x2011;" horiz-adv-x="428" d="M12 656q0 20 14 42q162 6 304 6q48 0 92 -2q2 -12 2 -24q0 -24 -6 -48q-180 8 -404 8q-2 8 -2 18z" />
<glyph unicode="&#x2012;" horiz-adv-x="428" d="M12 656q0 20 14 42q162 6 304 6q48 0 92 -2q2 -12 2 -24q0 -24 -6 -48q-180 8 -404 8q-2 8 -2 18z" />
<glyph unicode="&#x2013;" horiz-adv-x="436" d="M36 646q2 30 6 60q134 -10 356 -6q6 -14 6 -28q0 -16 -8 -32q-160 -6 -282 -6h-76q-2 6 -2 12z" />
<glyph unicode="&#x2014;" horiz-adv-x="688" d="M24 -16q0 18 18 40q346 2 628 10q6 -18 6 -34t-6 -30q-282 8 -644 4q-2 6 -2 10z" />
<glyph unicode="&#x2019;" horiz-adv-x="282" d="M86 1460q24 22 48 24q20 0 38 -14q28 -50 28 -106q0 -68 -42 -140q-12 -8 -24 -8t-22 6q60 126 -26 238z" />
<glyph unicode="&#x201c;" d="M308 1354q0 60 36 120q16 14 34 14q28 0 54 -32q-116 -84 -32 -238q-10 -6 -18 -6q-4 -2 -8 -2q-12 2 -22 8q-44 68 -44 136zM450 1350q0 62 36 122q18 12 34 12q28 2 54 -32q-116 -82 -32 -236q-12 -8 -26 -8q-10 0 -22 6q-42 70 -44 136z" />
<glyph unicode="&#x201d;" horiz-adv-x="288" d="M20 1464q26 22 50 24q18 0 38 -14q62 -112 -14 -246q-12 -8 -24 -8h-2q-12 0 -22 6q62 126 -26 238zM146 1466q24 24 50 24q18 0 36 -12q28 -52 28 -108q0 -66 -40 -140q-14 -6 -26 -8q-12 0 -22 8q60 124 -26 236z" />
<glyph unicode="&#x202f;" horiz-adv-x="357" />
<glyph unicode="&#x205f;" horiz-adv-x="447" />
<glyph unicode="&#x2122;" horiz-adv-x="1106" d="M54 1438q0 14 6 24q96 4 192 6q78 0 156 -4q4 -26 -6 -56q-46 2 -142 4q-2 -340 2 -754q-22 -4 -32 -4h-2q-12 0 -30 6q2 320 2 754l-138 -6q-8 16 -8 30zM452 658q34 334 0 796q22 14 40 14q8 0 16 -2q50 -196 148 -308q102 136 164 306q30 4 58 -8q-108 -780 88 -766 q56 6 34 96q18 16 42 -4v-26q2 -98 -102 -102q-98 -2 -122 120q-52 298 8 572q-72 -132 -168 -274q-110 112 -162 270q32 -330 26 -684q-24 -6 -38 -6t-32 6z" />
<glyph unicode="&#x25fc;" horiz-adv-x="1190" d="M0 0v1190h1190v-1190h-1190z" />
</font>
</defs>
</svg>
